<?xml version="1.0" encoding="UTF-8"?><svg xmlns="http://www.w3.org/2000/svg" viewBox="0 0 500 200"><defs><style>.cls-1{fill:#fff;}.cls-2{fill:#e63947;}.cls-3{fill:#b4b4b4;}.cls-4{fill:#27aae1;}.cls-5{fill:#8b5e3c;}.cls-6{fill:#c59c6d;}.cls-7{fill:#9e3947;}.cls-8{fill:#d1d3d4;}.cls-9{fill:#e6e7e8;}.cls-10{fill:#1c75bc;}</style></defs><g id="Layer_1"><rect class="cls-9" width="500" height="200"/><ellipse class="cls-8" cx="121.96" cy="151.43" rx="53.73" ry="17.99"/><ellipse class="cls-8" cx="379.08" cy="151.43" rx="53.73" ry="17.99"/></g><g id="Dino_1"><g><path d="M342.22,103.36c-3.97-1.73-7.37-4.2-9.66-7.94-2.51-4.1-3.26-8.59-2.57-13.33,.63-4.33,2.41-8.08,5.61-11.12,.19-.18,.28-.53,.3-.81,.08-.97,.05-1.96,.18-2.92,1.09-7.95,4.78-14.49,10.74-19.79,3.86-3.43,8.37-5.71,13.3-7.18,.3-.09,.61-.27,.81-.5,.94-1.05,1.79-2.18,2.77-3.2,2.23-2.31,4.81-4.15,7.78-5.42,.81-.35,1.73-.62,2.54-.21,1.54,.79,3.11,1.6,4.48,2.64,1.5,1.14,2.78,2.56,4.2,3.9,.32-.2,.7-.44,1.1-.67,4.4-2.58,9.09-3.97,14.25-3.44,1.8,.19,3.04,1.07,3.76,2.74,.89,2.05,1.36,4.2,1.53,6.41,.1,1.29,.02,2.6,.02,3.86,1.7,.09,3.18,.11,4.65,.27,2.58,.29,5.08,.9,7.45,2.01,1.88,.88,2.66,2.32,2.69,4.35,.06,3.73-.82,7.22-2.4,10.56-.29,.62-.59,1.23-.9,1.87,.17,.08,.25,.13,.34,.17,3.28,1.59,6,3.82,8.01,6.89,1.19,1.82,1.13,3.58-.11,5.37-1.48,2.13-3.24,3.99-5.39,5.44-1.35,.91-2.78,1.7-4.22,2.57,.16,.26,.36,.53,.49,.82,.55,1.24,1.21,2.45,1.58,3.74,1.09,3.82,.06,5.9-3.54,7.56-3.17,1.47-6.54,1.86-9.98,1.78-.52-.01-.89,.06-1.1,.52,1.02,.46,2.05,.85,3.01,1.36,2.37,1.27,3.23,2.93,2.85,5.58-.19,1.31-.54,2.59-.8,3.83,1.01,.53,2.09,1.06,3.13,1.66,2.22,1.28,3,3.23,2.44,5.69-.3,1.31-.76,2.58-1.16,3.89,3.78,2.31,3.9,2.47,4.6,5.89,2.13-1.06,3.95-.59,5.5,1.17,1.29-1.66,2.83-2.7,4.98-2.26,.68,.14,1.06-.11,1.48-.56,.74-.8,1.65-1.24,2.76-.91,1.11,.33,1.63,1.18,1.84,2.26,.34,1.75,.13,3.49-.28,5.19-1.87,7.7-6.17,13.68-12.86,17.92-5.35,3.39-11.29,4.89-17.51,5.57-.91,.1-1.88-.08-2.74,.53-5.09,3.63-10.8,5.13-17,4.67-3.46-.26-6.2-1.71-7.55-5.16-.09-.24-.51-.47-.79-.5-3.35-.34-6.65-.94-9.83-2.1-.3-.11-.71-.11-1.01,0-2.8,1.1-5.66,1.99-8.63,2.47-3.59,.58-7.19,.8-10.79,.06-5.62-1.16-8.26-5.13-7.17-10.73,.74-3.8,2.83-6.77,5.68-9.27,.53-.47,1.1-.89,1.71-1.38-1.24-.61-2.44-1.13-3.58-1.77-.52-.29-.97-.75-1.34-1.21-.26-.32-.46-.42-.88-.4-3.58,.21-6.44-1.13-8.35-4.19-2.09-3.35-1.95-6.82-.12-10.24,.3-.56,.27-.96-.05-1.47-1.15-1.85-2.27-3.72-3.38-5.6-.64-1.08-.31-1.91,.86-2.37,.2-.08,.45-.29,.5-.48,.18-.75,.64-1.13,1.37-1.2,.29-1.2,.51-1.39,1.85-1.61,.49-1.52,1.29-1.84,2.66-1.01,4.09,2.5,8.17,5.02,12.26,7.51,.2,.12,.55,.18,.74,.09,1.21-.61,2.43-1.21,3.59-1.92,1.26-.77,1.98-1.97,2.34-3.44-3.13-.46-6.14-1.27-9.02-2.53Zm51.62-51.31c1.54-.23,2.43,.96,3.38,1.81,1.68,1.5,3.29,3.09,4.75,4.8,1.28,1.51,2.3,3.23,3.44,4.86,.18,.26,.35,.53,.53,.79,.06-.04,.12-.07,.19-.11-.64-1.27-1.22-2.58-1.93-3.82-3.65-6.31-8.87-10.89-15.39-14.06-6.14-2.98-12.61-4.26-19.4-3.84-7.7,.48-14.67,2.83-20.47,8.12-4.76,4.34-7.9,9.62-8.98,16.01-.29,1.71-.29,3.47-.38,5.21-.02,.45-.13,.73-.51,1.02-3.02,2.36-4.62,5.57-5.34,9.26-.19,1-.25,2.04-.29,3.06-.07,2.08,1.03,3.53,2.65,4.67,.41,.28,.76,.34,1.14-.09,.29-.32,.64-.59,.98-.86,1.07-.84,2.36-.77,3.34,.18,.37,.36,.7,.77,1.13,1.04,.93,.59,1.88,.69,2.88,.06,1.75-1.11,2.47-1.04,4.07,.28,1.16,.95,2.21,.98,3.41,.08,1.56-1.17,2.5-1.17,4.08,0,1.46,1.09,2.37,1.1,3.68-.13,1.14-1.08,2.36-1.69,3.95-1.23,.61,.18,1.07-.11,1.36-.62,.44-.78,.81-1.6,1.21-2.4,.44-.87,1.05-1.25,1.88-1.17,.65,.06,1.09,.42,1.34,1.01,.25,.6,0,1.05-.34,1.56-.34,.51-.6,1.11-.74,1.71-.27,1.09-.41,2.22-.64,3.32-.15,.71-.5,1.32-1.26,1.51-.75,.19-1.24-.26-1.71-.78-1.48-1.63-2.7-1.52-3.84,.36-.3,.5-.51,1.06-.73,1.6-.29,.71-.6,1.41-1.5,1.46-.9,.05-1.42-.53-1.73-1.29-.41-1.01-1.17-1.65-2.05-2.22-.67-.44-1.3-.39-1.81,.15-.48,.51-.88,1.12-1.23,1.74-.37,.64-.77,1.21-1.58,1.13-.79-.08-1.19-.65-1.54-1.34-.32-.64-.77-1.28-1.31-1.73-.88-.72-1.68-.55-2.38,.37-.26,.34-.44,.75-.64,1.14-.3,.57-.66,1.05-1.4,1.02-.75-.03-1.25-.44-1.5-1.12-.37-1.01-.83-1.92-1.79-2.52-.77-.48-1.04-.46-1.6,.28-1.29,1.67-1.83,1.75-3.53,.51-.22-.16-.44-.32-.81-.59,.58,1.35,1.36,2.33,2.26,3.24,2.79,2.83,6.19,4.67,9.98,5.68,2.88,.77,5.86,1.2,8.8,1.77,.12,.02,.24,.05,.41,.08-.85,2.2-1.69,4.36-2.6,6.72,.47-.14,.73-.22,.98-.29,4.41-1.26,8.8-2.55,13.22-3.75,2.06-.56,2.78-.09,3.41,1.96,.1,.32,.15,.65,.26,.96,.06,.16,.2,.3,.33,.43,.44,.43,1.03,.77,1.31,1.28,.68,1.23,1.21,2.54,1.85,3.9,.89-.72,1.73-1.42,2.59-2.09,.42-.33,.85-.71,1.34-.88,.42-.14,.99-.15,1.38,.02,.88,.39,.97,1.06,.27,1.7-1.46,1.31-2.97,2.59-4.43,3.85,.34,.11,.84,.2,1.28,.42,.92,.46,.98,1.41,.04,1.8-.98,.41-2.06,.54-3.1,.8-1.41,.35-2.85,.62-4.23,1.08-1.01,.34-1.81,1.05-2.29,2.06-.21,.46-.21,.8,.3,1.08,.73,.41,1.35,.89,1.85,1.65,.36,.55,1.26,.86,1.98,1.05,2.47,.65,4.93,.41,7.34-.38,2.34-.77,4.4-2,6.35-3.52,.61-.48,1.02-1.22,1.83-1.52,.33-.12,.38-.87,.71-1.15,1-.87,1.4-2.1,2.03-3.19,.64-1.12,1.03-2.39,1.48-3.61,.2-.54,.38-1.02,1.02-1.1,.71-.09,1.34,.21,1.62,.81,.36,.77,.62,1.63,.72,2.48,.27,2.32-.53,4.45-1.27,6.59-.22,.63-.24,1.34-.38,2-.5,2.34-1.43,4.49-2.75,6.48-.12,.19-.15,.54-.06,.75,.33,.81,.03,1.53-.8,1.77-7.05,2.04-12.64,8.63-13.36,15.93-.17,1.69-.11,3.45,.16,5.12,.45,2.8,1.37,3.6,4.6,3.99,.91,.11,1.84,0,2.76,.07,.79,.06,1.07-.37,1.12-1.03,.05-.63,.01-1.28,.01-1.91,1.52-.42,3.12-.77,4.66-1.31,2.72-.95,5.14-2.42,7.25-4.39,.91-.85,1.87-1.65,2.72-2.56,.39-.41,.54-1.02,.85-1.51,1.26-1.96,2.23-4.06,2.68-6.35,.5-2.51,.6-5.06-.05-7.55-1.08-4.11-2.14-8.24-3.48-12.28-1.07-3.23-2.99-6.05-5.05-8.77-2.2-2.89-4.72-5.47-7.44-7.88-.47-.42-.99-.79-1.57-1.25,1.27-.8,2.49-1.5,3.64-2.29,7.37-5.08,12.13-11.9,13.76-20.79,.18-.98,.25-1.98,.32-2.98,.01-.19-.17-.53-.31-.56-2.41-.52-3.26-2.31-3.62-4.45-.32-1.88,.76-3.28,2.69-3.53,.11-.67-.03-1.18-.68-1.6-1.52-.99-2.65-2.38-3.33-4.04-1.26-3.08-2.85-5.97-4.69-8.53,.13-.33,.22-.55,.28-.71Zm-14.54,83.57c-.82,.2-1.43,.36-2.04,.51-4.86,1.16-9.72,2.31-14.57,3.48-.28,.07-.57,.23-.77,.42-1.87,1.77-4.91,2.3-7.24,1.22-.32-.15-.7-.32-.89-.59-.79-1.1-2.03-1.4-3.15-1.92,.17,2.34,5.25,7.92,9.04,9.92,3.93,2.08,10.46,3.94,13.12,3.7-.17-6.44,2.03-11.93,6.52-16.75Zm-24.36-13.63c2.16,4.08,4.32,8.16,6.46,12.25,.26,.51,.53,.73,1.12,.6,1.99-.45,3.99-.85,5.98-1.27,.01-.09,.02-.18,.03-.27-.19-.14-.37-.29-.56-.43-2.88-2.18-4.82-4.9-4.84-8.66-.01-2.98,1.73-5.56,4.49-6.68,.88-.36,1.79-.64,2.7-.89,.39-.11,.83-.4,1.19,.22,.11,.19,.75,.07,1.39,.11-.5-.99-.88-1.81-1.33-2.6-.07-.12-.46-.12-.67-.07-2.59,.72-5.18,1.44-7.77,2.19-3.17,.92-6.34,1.85-9.66,2.82,.53,.97,1,1.82,1.45,2.67Zm-16.21,26.12c-.14,2.01,.73,3.46,2.54,4.34,2.03,.99,4.21,.98,6.38,.99,.67,0,1.01-.48,1.23-1.09,.86-2.45,.75-4.91,.02-7.33-.45-1.49-1.12-2.91-1.7-4.36-.21-.54-.54-.97-.28-1.69,.17-.48-.28-1.18-.49-1.92-4.12,2.74-7.34,5.91-7.71,11.07Zm69.7-6.38c1.46,.06,3.01,.24,4.55,.16,4.03-.22,7.67-1.56,10.72-4.25,1.19-1.05,2.42-2.16,3.23-3.49,.71-1.17,.87-2.68,1.16-4.13-2.83,1.96-5.84,3.31-9.18,3.92-3.38,.61-6.66,.04-9.78-.8-.23,2.85-.46,5.62-.7,8.6Zm2.22-76.87c.64-1.14,1.21-2.05,1.67-3.01,1.2-2.47,1.98-5.07,2.13-7.82,.09-1.63-.12-1.94-1.65-2.51-2.84-1.07-5.77-1.64-8.81-1.33-.69,.07-1.36,.34-2.04,.52,0,.09,0,.18,0,.27,4.01,3.82,6.84,8.39,8.7,13.88Zm12.27,75.22c-3.43,2.56-7.3,4.14-11.45,5.02-1.32,.28-2.68,.4-4.02,.64-.28,.05-.68,.23-.78,.45-1.01,2.29-2.31,4.4-3.92,6.34,8.01,.23,20.68-7.96,22.63-14.55-.8,.68-1.59,1.44-2.46,2.09Zm-82.63-20.46l.22-.21c-.45-.6-.77-1.46-1.37-1.77-2.97-1.54-6.01-2.94-9.16-4.28,.34,.55,.66,1.11,1.01,1.65,1.19,1.88,2.43,3.73,3.58,5.64,1.77,2.94,3.47,5.93,5.23,8.88,.18,.3,.51,.55,.83,.7,1.21,.56,2.44,1.08,3.67,1.58,.24,.1,.53,.05,.8,.07,0-.29,.12-.63,.01-.88-.45-1.06-.89-2.13-1.45-3.14-1.5-2.72-3.06-5.4-4.59-8.1-.12-.22-.22-.45-.43-.89,.69,.31,1.16,.52,1.64,.73Zm59.34-75.45c0-2.04-.39-4.02-1.04-5.96-.25-.73-.67-1.14-1.49-1.2-2.66-.21-5.22,.23-7.68,1.17-1.21,.46-2.35,1.13-3.51,1.72-.25,.13-.46,.35-.8,.62,5.41,1.48,9.95,4.21,14.3,7.86,.08-1.54,.22-2.88,.22-4.21Zm19.34,32.19c-.33,.5-.56,.86-.79,1.21,.06,.05,.13,.1,.19,.15,.57-.72,1.18-1.42,1.67-2.19,.14-.22,.06-.76-.12-1-.77-1.04-1.49-2.19-2.48-2.99-1.26-1.02-2.75-1.74-4.15-2.59-.15-.09-.33-.17-.5-.18-.37-.02-.74,.01-1.11,.02,.02,.35-.01,.71,.07,1.04,.37,1.44,.85,2.85,1.13,4.3,.31,1.6,.45,3.24,.66,4.86,.03,.22,.02,.45,.04,.77,2.01-.8,3.64-2.04,5.38-3.41Zm-61.78,56.91c.05-.02,.1-.05,.15-.07-1.12-2.16-2.24-4.32-3.4-6.58-1.35,1.55-3.05,2.12-5.13,2.07,.76,1.3,1.54,2.41,2.1,3.64,.65,1.43,1.62,1.88,3.1,1.6,.89-.16,1.8-.19,2.37-1.17,.32,.2,.57,.36,.81,.51Zm-3.41-18.71c-.17-.62,.37-.7,.78-.83,2.2-.68,4.4-1.37,6.62-2,2.31-.66,4.64-1.25,6.96-1.88,.33-.09,.85-.06,.69-.67-.13-.53-.47-.69-.98-.57-1.74,.42-3.51,.76-5.22,1.28-3.55,1.07-7.11,2.16-10.6,3.41-1.32,.47-2.51,1.36-3.69,2.17-.81,.55-1.34,1.39-1.46,2.44,1.94-1.89,4.55-2.31,6.9-3.35Zm-9.43,6.49c.47,.83,.81,1.47,1.18,2.09,.45,.74,.89,1.5,1.42,2.18,.25,.32,.72,.66,1.09,.65,1.01-.02,2.05-.12,3.01-.4,.56-.16,1.01-.72,1.47-1.15,.09-.08,.04-.39-.03-.55-.18-.4-.34-.84-.63-1.13-.74-.74-.77-1.84-1.43-2.73-1.82,1.37-3.71,1.91-6.07,1.03Zm34.47-81.86c-1.53-1.67-3.04-3.34-5.14-4.28-.39-.17-.98-.15-1.38,.02-2.28,.94-4.15,2.48-5.88,4.23,4.14-.63,8.25-.73,12.4,.04Zm-29.99,78.82c6.83-1.99,13.67-3.98,20.5-5.98,.41-.12,1.07-.16,.6-.84-.13-.19-.63-.26-.91-.19-2.11,.52-4.22,1.05-6.31,1.66-3.81,1.1-7.63,2.2-11.4,3.41-1.15,.37-2.17,1.1-3.25,1.68-.14,.08-.22,.26-.33,.39,.03,.04,.06,.09,.09,.13,.34-.08,.69-.16,1.03-.26Zm-3.41-2.26c-1.08-1.54-2.54-2.68-4.12-3.64-2.85-1.72-5.76-3.35-8.65-5-.26-.15-.61-.35-.84-.28-.26,.08-.52,.4-.63,.68-.05,.13,.2,.49,.39,.6,2.37,1.33,4.76,2.61,7.12,3.95,2.76,1.56,5.35,3.33,7.32,5.88,.04,.06,.12,.09,.29,.2,.1-1.01-.41-1.72-.88-2.4Zm-.41,1.94c-1.29-1.63-2.98-2.75-4.81-3.65-3.33-1.65-6.7-3.22-10.06-4.8-.91-.43-.93-.39-1.36,.74,1.26,.58,2.54,1.15,3.8,1.76,3.05,1.47,6.1,2.92,9.11,4.46,.85,.44,1.55,1.17,2.35,1.72,.4,.28,.88,.45,1.33,.67,.04-.06,.09-.12,.13-.18-.17-.24-.32-.49-.5-.72Zm-13.9,2.52c-.86,1.58-.74,4.08,.44,5.67,1.01,1.37,2.24,2.57,4.36,2.58-1.65-2.84-3.21-5.52-4.8-8.25Zm71.58-10.78c.24-.99,.49-1.8,.61-2.62,.13-.87-.2-1.62-.9-2.16-1-.76-2.05-1.43-3.38-.92-.42,.16-.76,.52-1.22,.86,2.12,1.2,3.9,2.5,4.89,4.86Zm4.53,10.95c.46-1.31,1.49-2.64,.56-4.22-.69-1.16-2.6-1.94-4.07-1.63,1.62,1.78,1.54,4.37,3.51,5.85Zm4.35-27.21c0,.17,.02,.39,.03,.6,.06,.02,.12,.04,.18,.06,.12-.35,.33-.69,.34-1.04,.01-2.1-.99-3.8-2.17-5.41-.08,0-.16,.01-.24,.02-.02,.38-.18,.84-.03,1.12,.48,.87,.28,1.71,0,2.53-.25,.75-.62,1.45-.94,2.18-.09,.2-.18,.41-.27,.61,.05,.07,.11,.14,.16,.21,.96-.29,1.93-.58,2.93-.88Zm-2.56,34.58c.55,.35,.87,1.05,1.31,1.58,.3,.36,.64,.69,1,1.08,.91-2.91-.91-5.42-3.43-4.87,.25,.8,.24,1.65,1.11,2.22Zm-50.94,8.28c-1.1,1.01-2.34,1.52-3.81,1.34,.52,1.71,3.28,2.26,4.86,1-.32-.73-.66-1.46-1.05-2.34Zm22.79-1.84c.81-.53,1.63-1.13,2.51-1.63,.73-.42,1.5-.8,2.3-1.06,.81-.27,1.05-.72,.85-1.48-1.92,.92-3.83,1.83-5.77,2.75,.03,.39,.07,.9,.11,1.41Zm36.1-3.92c-.86-.1-1.27,.57-1.79,1.26h3.08c-.25-.63-.61-1.18-1.29-1.26Zm-11.98,5.05c-.02,.91-.08,1.83,.02,2.74v-5.48s-.01,0-.02,0c0,.91,.02,1.83,0,2.74Z"/><g><rect class="cls-4" x="340.64" y="71.41" width="40.91" height="13.98" transform="translate(722.18 156.79) rotate(-180)"/><path class="cls-4" d="M398.24,61.28c.68,1.66,1.81,3.05,3.33,4.04,.65,.42,.79,.92,.68,1.6-1.93,.25-3.01,1.64-2.69,3.53,.36,2.15,1.21,3.93,3.62,4.45,.14,.03,.33,.38,.31,.56-.07,1-.14,2-.32,2.98-1.63,8.89-6.39,15.71-13.76,20.79-1.15,.79-2.37,1.5-3.64,2.29,.58,.46,1.09,.83,1.57,1.25,2.71,2.4,5.24,4.98,7.44,7.88,2.06,2.71,3.98,5.54,5.05,8.77,1.34,4.03,2.4,8.16,3.48,12.28,.65,2.49,.55,5.04,.05,7.55-.46,2.29-1.42,4.38-2.68,6.35-.31,.49-.47,1.1-.85,1.51-.86,.9-1.82,1.7-2.72,2.56-2.11,1.98-4.54,3.45-7.25,4.39-1.54,.54-3.14,.89-4.66,1.31,0,.63,.04,1.27-.01,1.91-.05,.65-.33,1.09-1.12,1.03-.92-.07-1.85,.05-2.76-.07-3.24-.39-4.16-1.19-4.6-3.99-.27-1.68-.33-3.43-.16-5.12,.72-7.3,6.3-13.89,13.36-15.93,.83-.24,1.13-.96,.8-1.77-.09-.21-.06-.57,.06-.75,1.32-1.99,2.25-4.14,2.75-6.48,.14-.66,.16-1.37,.38-2,.74-2.14,1.54-4.28,1.27-6.59-.1-.84-.36-1.7-.72-2.48-.28-.6-.91-.9-1.62-.81-.64,.08-.82,.56-1.02,1.1-.44,1.22-.83,2.49-1.48,3.61-.62,1.08-1.03,2.32-2.03,3.19-.33,.29-.38,1.03-.71,1.15-.81,.3-1.22,1.04-1.83,1.52-1.95,1.52-4.01,2.75-6.35,3.52-2.41,.8-4.87,1.03-7.34,.38-.72-.19-1.61-.5-1.98-1.05-.5-.76-1.12-1.24-1.85-1.65-.5-.29-.51-.63-.3-1.08,.47-1.01,1.28-1.73,2.29-2.06,1.38-.46,2.81-.73,4.23-1.08,1.04-.26,2.13-.39,3.1-.8,.94-.39,.88-1.34-.04-1.8-.43-.22-.93-.31-1.28-.42,1.46-1.27,2.96-2.54,4.43-3.85,.71-.64,.62-1.31-.27-1.7-.39-.17-.96-.16-1.38-.02-.49,.17-.92,.55-1.34,.88-.86,.67-1.69,1.36-2.59,2.09-.63-1.36-1.17-2.67-1.85-3.9-.28-.51-.87-.85-1.31-1.28-.13-.13-.27-.27-.33-.43-.12-.31-.16-.65-.26-.96-.63-2.04-1.35-2.52-3.41-1.96-4.42,1.2-8.82,2.5-13.22,3.75-.25,.07-.51,.15-.98,.29,.91-2.36,1.75-4.52,2.6-6.72-.16-.03-.28-.05-.41-.08-2.94-.58-5.91-1.01-8.8-1.77-3.79-1.01-7.19-2.85-9.98-5.68-.89-.91-1.68-1.89-2.26-3.24,.37,.27,.59,.43,.81,.59,1.7,1.24,2.24,1.16,3.53-.51,.57-.73,.83-.76,1.6-.28,.96,.59,1.42,1.51,1.79,2.52,.25,.68,.75,1.09,1.5,1.12,.74,.03,1.09-.45,1.4-1.02,.2-.38,.38-.79,.64-1.14,.7-.92,1.5-1.09,2.38-.37,.55,.45,.99,1.09,1.31,1.73,.35,.69,.74,1.26,1.54,1.34,.81,.08,1.21-.49,1.58-1.13,.35-.62,.75-1.22,1.23-1.74,.51-.54,1.14-.59,1.81-.15,.88,.57,1.63,1.22,2.05,2.22,.31,.75,.82,1.33,1.73,1.29,.9-.05,1.2-.75,1.5-1.46,.22-.54,.43-1.1,.73-1.6,1.14-1.88,2.36-1.99,3.84-.36,.47,.52,.96,.97,1.71,.78,.76-.19,1.11-.8,1.26-1.51,.23-1.11,.37-2.23,.64-3.32,.15-.6,.4-1.2,.74-1.71,.34-.5,.59-.96,.34-1.56-.25-.59-.69-.95-1.34-1.01-.83-.08-1.44,.3-1.88,1.17-.4,.8-.78,1.62-1.21,2.4-.28,.51-.75,.8-1.36,.62-1.6-.47-2.81,.14-3.95,1.23-1.31,1.24-2.22,1.22-3.68,.13-1.58-1.17-2.52-1.17-4.08,0-1.2,.9-2.25,.87-3.41-.08-1.6-1.31-2.31-1.39-4.07-.28-1,.63-1.96,.53-2.88-.06-.42-.27-.76-.69-1.13-1.04-.99-.95-2.27-1.02-3.34-.18-.34,.27-.7,.54-.98,.86-.38,.43-.73,.37-1.14,.09-1.62-1.14-2.72-2.59-2.65-4.67,.03-1.02,.09-2.06,.29-3.06,.72-3.69,2.32-6.9,5.34-9.26,.37-.29,.48-.57,.51-1.02,.09-1.74,.09-3.5,.38-5.21,1.08-6.39,4.22-11.67,8.98-16.01,5.8-5.29,12.77-7.65,20.47-8.12,6.79-.42,13.26,.86,19.4,3.84,6.53,3.17,11.75,7.75,15.39,14.06,.71,1.23,1.29,2.54,1.93,3.82-.06,.04-.12,.07-.19,.11-.18-.26-.35-.53-.53-.79-1.13-1.63-2.16-3.35-3.44-4.86-1.45-1.71-3.07-3.3-4.75-4.8-.95-.85-1.84-2.03-3.38-1.81-.06,.16-.15,.38-.28,.71,1.84,2.56,3.42,5.45,4.69,8.53Zm-26.47,21.18c1.64,1.49,3.92,1.13,5.05-.77,1.27-2.14,.87-5.96-.82-7.81-1.69-1.85-4.48-1.28-5.46,1.17-.33,.81-.41,1.73-.52,2.22,.14,2.16,.34,3.9,1.75,5.18Zm10.31-29.72c-.24,.95,.21,2.03,1.21,2.5,.63,.29,1.36,.49,2.05,.49,1.56,0,2.39-1.48,1.72-2.89-.46-.96-1.53-1.62-2.68-1.63-1.17-.02-2.06,.57-2.3,1.53Zm11.29,7.15c0-1.45-1.31-2.63-2.94-2.63-1.31,0-2.34,.91-2.32,2.06,.03,1.31,1.54,2.52,3.12,2.51,1.27-.01,2.14-.79,2.14-1.93Zm-44.31,20.7c-.05,.58,.16,1,.69,1.25,.56,.26,.91-.05,1.24-.45,.68-.84,1.13-.8,1.59,.2,.28,.61,.68,.91,1.32,.71,.65-.2,.8-.74,.73-1.35-.17-1.46-1.42-2.57-2.88-2.57-1.43,0-2.59,.95-2.7,2.21Zm-7.74,.7c.44,.23,.9,.08,1.19-.39,.1-.15,.19-.3,.3-.45,.35-.46,.71-.47,1.06,0,.39,.53,.81,.97,1.52,.52,.52-.33,.59-1.05,.19-1.8-.62-1.15-1.8-1.7-3.02-1.4-1.08,.27-1.95,1.37-1.95,2.77,.13,.15,.36,.56,.71,.75Zm57.33-15.98c.03-1.1-.95-2.13-2.06-2.16-1.03-.03-1.84,.66-1.9,1.6-.07,1.13,.94,2.14,2.2,2.19,.96,.04,1.73-.67,1.76-1.63Zm-1.94,12.64c-.03,.97,.89,1.89,1.92,1.9,.99,.01,1.73-.7,1.72-1.66-.02-1.02-.84-1.8-1.89-1.81-.95,0-1.72,.68-1.75,1.56Zm-17.85-28.55c.68-.03,1.22-.6,1.2-1.25-.03-.76-.74-1.35-1.59-1.34-.73,0-1.36,.56-1.34,1.2,.02,.75,.87,1.43,1.74,1.39Zm22.57,83.74c.7,0,1.27-.56,1.29-1.26,.02-.76-.54-1.37-1.25-1.38-.74,0-1.36,.59-1.37,1.28,0,.69,.64,1.35,1.32,1.35Zm-14.51-84.51c0-.71-.76-1.37-1.57-1.37-.66,0-1.18,.52-1.18,1.15,0,.69,.64,1.21,1.48,1.22,.8,0,1.26-.36,1.26-1Zm7.74,78.98c0,.67,.52,1.2,1.15,1.18,.69-.02,1.21-.52,1.2-1.13,0-.75-.46-1.21-1.19-1.2-.7,.01-1.17,.48-1.17,1.15Zm.52-59.16c-.48-.04-.89,.29-.82,.87,.06,.53,.43,.89,.93,.79,.36-.07,.65-.46,.97-.71,0-.12-.02-.25-.03-.37-.35-.21-.69-.55-1.06-.58Zm-18.53-15.41c.26,0,.75-.56,.7-.75-.09-.32-.5-.73-.82-.77-.28-.04-.63,.37-.94,.58,0,.13,0,.25,.01,.38,.35,.21,.7,.58,1.05,.57Zm21.5,65.98c.03-.16-.38-.58-.51-.55-.26,.06-.57,.32-.65,.57-.05,.16,.25,.45,.49,.83,.32-.37,.62-.58,.67-.84Zm.32-45.72c.21-.05,.37-.31,.55-.47-.18-.16-.37-.44-.54-.44-.2,0-.4,.27-.74,.54,.36,.2,.58,.41,.74,.37Zm1.37,50.84c.02-.07-.29-.36-.39-.33-.2,.06-.36,.26-.54,.41,.13,.16,.26,.31,.47,.57,.22-.28,.4-.44,.47-.64Zm1.26-41.34c-.06-.17-.26-.35-.43-.4-.1-.02-.37,.24-.36,.36,0,.16,.21,.31,.43,.58,.19-.27,.4-.46,.37-.55Zm-3.85,39.38c.02-.09-.19-.23-.3-.34-.13,.15-.31,.28-.39,.46-.03,.08,.14,.25,.31,.51,.18-.29,.34-.45,.37-.63Zm-.28,8.39c.11,.02,.39-.27,.37-.35-.06-.18-.23-.37-.41-.43-.1-.04-.29,.16-.56,.33,.28,.22,.43,.43,.6,.45Z"/><path class="cls-4" d="M372.78,152.36c-.17-6.44,2.03-11.93,6.52-16.75-.82,.2-1.43,.36-2.04,.51-4.86,1.16-9.72,2.31-14.57,3.48-.28,.07-.57,.23-.77,.42-1.87,1.77-4.91,2.3-7.24,1.22-.32-.15-.7-.32-.89-.59-.79-1.1-2.03-1.4-3.15-1.92,.17,2.34,5.25,7.92,9.04,9.92,3.93,2.08,10.46,3.94,13.12,3.7Z"/><path class="cls-4" d="M346.44,137.02c-4.12,2.74-7.34,5.91-7.71,11.07-.14,2.01,.73,3.46,2.54,4.34,2.03,.99,4.21,.98,6.38,.99,.67,0,1.01-.48,1.23-1.09,.86-2.45,.75-4.91,.02-7.33-.45-1.49-1.12-2.91-1.7-4.36-.21-.54-.54-.97-.28-1.69,.17-.48-.28-1.18-.49-1.92Z"/><path class="cls-4" d="M409.12,133.12c-.23,2.85-.46,5.62-.7,8.6,1.46,.06,3.01,.24,4.55,.16,4.03-.22,7.67-1.56,10.72-4.25,1.19-1.05,2.42-2.16,3.23-3.49,.71-1.17,.87-2.68,1.16-4.13-2.83,1.96-5.84,3.31-9.18,3.92-3.38,.61-6.66,.04-9.78-.8Z"/></g><path class="cls-10" d="M425.37,137.97c-.8,.68-1.59,1.44-2.46,2.09-3.43,2.56-7.3,4.14-11.45,5.02-1.32,.28-2.68,.4-4.02,.64-.28,.05-.68,.23-.78,.45-1.01,2.29-2.31,4.4-3.92,6.34,8.01,.23,20.68-7.96,22.63-14.55Z"/><g><path class="cls-9" d="M346.89,117.89c1.94-1.89,4.55-2.31,6.9-3.35-.17-.62,.37-.7,.78-.83,2.2-.68,4.4-1.37,6.62-2,2.31-.66,4.64-1.25,6.96-1.88,.33-.09,.85-.06,.69-.67-.13-.53-.47-.69-.98-.57-1.74,.42-3.51,.76-5.22,1.28-3.55,1.07-7.11,2.16-10.6,3.41-1.32,.47-2.51,1.36-3.69,2.17-.81,.55-1.34,1.39-1.46,2.44Z"/><path class="cls-9" d="M347.81,118.23c.34-.08,.69-.16,1.03-.26,6.83-1.99,13.67-3.98,20.5-5.98,.41-.12,1.07-.16,.6-.84-.13-.19-.63-.26-.91-.19-2.11,.52-4.22,1.05-6.31,1.66-3.81,1.1-7.63,2.2-11.4,3.41-1.15,.37-2.17,1.1-3.25,1.68-.14,.08-.22,.26-.33,.39,.03,.04,.06,.09,.09,.13Z"/><path class="cls-9" d="M346.31,118.11c.1-1.01-.41-1.72-.88-2.4-1.08-1.54-2.54-2.68-4.12-3.64-2.85-1.72-5.76-3.35-8.65-5-.26-.15-.61-.35-.84-.28-.26,.08-.52,.4-.63,.68-.05,.13,.2,.49,.39,.6,2.37,1.33,4.76,2.61,7.12,3.95,2.76,1.56,5.35,3.33,7.32,5.88,.04,.06,.12,.09,.29,.2Z"/><path class="cls-9" d="M345.51,118.38c-.17-.24-.32-.49-.5-.72-1.29-1.63-2.98-2.75-4.81-3.65-3.33-1.65-6.7-3.22-10.06-4.8-.91-.43-.93-.39-1.36,.74,1.26,.58,2.54,1.15,3.8,1.76,3.05,1.47,6.1,2.92,9.11,4.46,.85,.44,1.55,1.17,2.35,1.72,.4,.28,.88,.45,1.33,.67,.04-.06,.09-.12,.13-.18Z"/></g><path class="cls-1" d="M335.92,128.43c-1.65-2.84-3.21-5.52-4.8-8.25-.86,1.58-.74,4.08,.44,5.67,1.01,1.37,2.24,2.57,4.36,2.58Z"/><g><path class="cls-5" d="M353.48,119.3c.53,.97,1,1.82,1.45,2.67,2.16,4.08,4.32,8.16,6.46,12.25,.26,.51,.53,.73,1.12,.6,1.99-.45,3.99-.85,5.98-1.27,.01-.09,.02-.18,.03-.27-.19-.14-.37-.29-.56-.43-2.88-2.18-4.82-4.9-4.84-8.66-.01-2.98,1.73-5.56,4.49-6.68,.88-.36,1.79-.64,2.7-.89,.39-.11,.83-.4,1.19,.22,.11,.19,.75,.07,1.39,.11-.5-.99-.88-1.81-1.33-2.6-.07-.12-.46-.12-.67-.07-2.59,.72-5.18,1.44-7.77,2.19-3.17,.92-6.34,1.85-9.66,2.82Z"/><path class="cls-5" d="M338.65,118.87c.69,.31,1.16,.52,1.64,.73l.22-.21c-.45-.6-.77-1.46-1.37-1.77-2.97-1.54-6.01-2.94-9.16-4.28,.34,.55,.66,1.11,1.01,1.65,1.19,1.88,2.43,3.73,3.58,5.64,1.77,2.94,3.47,5.93,5.23,8.88,.18,.3,.51,.55,.83,.7,1.21,.56,2.44,1.08,3.67,1.58,.24,.1,.53,.05,.8,.07,0-.29,.12-.63,.01-.88-.45-1.06-.89-2.13-1.45-3.14-1.5-2.72-3.06-5.4-4.59-8.1-.12-.22-.22-.45-.43-.89Z"/><path class="cls-5" d="M356.38,132.73c.32,.2,.57,.36,.81,.51,.05-.02,.1-.05,.15-.07-1.12-2.16-2.24-4.32-3.4-6.58-1.35,1.55-3.05,2.12-5.13,2.07,.76,1.3,1.54,2.41,2.1,3.64,.65,1.43,1.62,1.88,3.1,1.6,.89-.16,1.8-.19,2.37-1.17Z"/><path class="cls-5" d="M350.42,119.99c-1.82,1.37-3.71,1.91-6.07,1.03,.47,.83,.81,1.47,1.18,2.09,.45,.74,.89,1.5,1.42,2.18,.25,.32,.72,.66,1.09,.65,1.01-.02,2.05-.12,3.01-.4,.56-.16,1.01-.72,1.47-1.15,.09-.08,.04-.39-.03-.55-.18-.4-.34-.84-.63-1.13-.74-.74-.77-1.84-1.43-2.73Z"/><path class="cls-5" d="M359.14,138.34c-.32-.73-.66-1.46-1.05-2.34-1.1,1.01-2.34,1.52-3.81,1.34,.52,1.71,3.28,2.26,4.86,1Z"/></g><path class="cls-4" d="M380.77,132.75c.03,.39,.07,.9,.11,1.41,.81-.53,1.63-1.13,2.51-1.63,.73-.42,1.5-.8,2.3-1.06,.81-.27,1.05-.72,.85-1.48-1.92,.92-3.83,1.83-5.77,2.75Z"/><g><path class="cls-10" d="M401.94,50.97c4.01,3.82,6.84,8.39,8.7,13.88,.64-1.14,1.21-2.05,1.67-3.01,1.2-2.47,1.98-5.07,2.13-7.82,.09-1.63-.12-1.94-1.65-2.51-2.84-1.07-5.77-1.64-8.81-1.33-.69,.07-1.36,.34-2.04,.52,0,.09,0,.18,0,.27Z"/><path class="cls-10" d="M399.41,48.37c.08-1.54,.22-2.88,.22-4.21,0-2.04-.39-4.02-1.04-5.96-.25-.73-.67-1.14-1.49-1.2-2.66-.21-5.22,.23-7.68,1.17-1.21,.46-2.35,1.13-3.51,1.72-.25,.13-.46,.35-.8,.62,5.41,1.48,9.95,4.21,14.3,7.86Z"/><path class="cls-10" d="M413.58,79.75c2.01-.8,3.64-2.04,5.38-3.41-.33,.5-.56,.86-.79,1.21,.06,.05,.13,.1,.19,.15,.57-.72,1.18-1.42,1.67-2.19,.14-.22,.06-.76-.12-1-.77-1.04-1.49-2.19-2.48-2.99-1.26-1.02-2.75-1.74-4.15-2.59-.15-.09-.33-.17-.5-.18-.37-.02-.74,.01-1.11,.02,.02,.35-.01,.71,.07,1.04,.37,1.44,.85,2.85,1.13,4.3,.31,1.6,.45,3.24,.66,4.86,.03,.22,.02,.45,.04,.77Z"/><path class="cls-10" d="M366.43,39.12c4.14-.63,8.25-.73,12.4,.04-1.53-1.67-3.04-3.34-5.14-4.28-.39-.17-.98-.15-1.38,.02-2.28,.94-4.15,2.48-5.88,4.23Z"/><path class="cls-10" d="M397.81,104.55c2.12,1.2,3.9,2.5,4.89,4.86,.24-.99,.49-1.8,.61-2.62,.13-.87-.2-1.62-.9-2.16-1-.76-2.05-1.43-3.38-.92-.42,.16-.76,.52-1.22,.86Z"/><path class="cls-10" d="M403.72,114.51c1.62,1.78,1.54,4.37,3.51,5.85,.46-1.31,1.49-2.64,.56-4.22-.69-1.16-2.6-1.94-4.07-1.63Z"/><path class="cls-10" d="M408.66,94.03c.96-.29,1.93-.58,2.93-.88,0,.17,.02,.39,.03,.6,.06,.02,.12,.04,.18,.06,.12-.35,.33-.69,.34-1.04,.01-2.1-.99-3.8-2.17-5.41-.08,0-.16,.01-.24,.02-.02,.38-.18,.84-.03,1.12,.48,.87,.28,1.71,0,2.53-.25,.75-.62,1.45-.94,2.18-.09,.2-.18,.41-.27,.61,.05,.07,.11,.14,.16,.21Z"/><path class="cls-10" d="M407.92,125.51c.25,.8,.24,1.65,1.11,2.22,.55,.35,.87,1.05,1.31,1.58,.3,.36,.64,.69,1,1.08,.91-2.91-.91-5.42-3.43-4.87Z"/><path class="cls-10" d="M418.26,131.5c-.25-.63-.61-1.18-1.29-1.26-.86-.1-1.27,.57-1.79,1.26h3.08Z"/></g><path d="M358.27,68.77c.23,3.41,.54,6.15,2.76,8.17,2.58,2.35,6.18,1.78,7.96-1.22,2-3.38,1.37-9.4-1.29-12.31-2.67-2.92-7.06-2.02-8.61,1.85-.51,1.28-.64,2.72-.81,3.5Z"/><path d="M384.38,51.21c-1.17-.02-2.06,.57-2.3,1.53-.24,.95,.21,2.03,1.21,2.5,.63,.29,1.36,.49,2.05,.49,1.56,0,2.39-1.48,1.72-2.89-.46-.96-1.53-1.62-2.68-1.63Z"/><path d="M391.24,61.82c1.27-.01,2.14-.79,2.14-1.93,0-1.45-1.31-2.63-2.94-2.63-1.31,0-2.34,.91-2.32,2.06,.03,1.31,1.54,2.52,3.12,2.51Z"/><path d="M396.9,66.93c.96,.04,1.73-.67,1.76-1.63,.03-1.1-.95-2.13-2.06-2.16-1.03-.03-1.84,.66-1.9,1.6-.07,1.13,.94,2.14,2.2,2.19Z"/><path d="M398.47,76.37c-.95,0-1.72,.68-1.75,1.56-.03,.97,.89,1.89,1.92,1.9,.99,.01,1.73-.7,1.72-1.66-.02-1.02-.84-1.8-1.89-1.81Z"/><path d="M377.13,48c.02,.75,.87,1.43,1.74,1.39,.68-.03,1.22-.6,1.2-1.25-.03-.76-.74-1.35-1.59-1.34-.73,0-1.36,.56-1.34,1.2Z"/><path d="M400.12,131.78c0,.69,.64,1.35,1.32,1.35,.7,0,1.27-.56,1.29-1.26,.02-.76-.54-1.37-1.25-1.38-.74,0-1.36,.59-1.37,1.28Z"/><path d="M385.68,49.62c.8,0,1.26-.36,1.26-1,0-.71-.76-1.37-1.57-1.37-.66,0-1.18,.52-1.18,1.15,0,.69,.64,1.21,1.48,1.22Z"/><path d="M395.85,126.45c-.7,.01-1.17,.48-1.17,1.15,0,.67,.52,1.2,1.15,1.18,.69-.02,1.21-.52,1.2-1.13,0-.75-.46-1.21-1.19-1.2Z"/><path d="M396.26,69.02c-.35-.21-.69-.55-1.06-.58-.48-.04-.89,.29-.82,.87,.06,.53,.43,.89,.93,.79,.36-.07,.65-.46,.97-.71,0-.12-.02-.25-.03-.37Z"/><path d="M375.62,52.45c.35,.21,.7,.58,1.05,.57,.26,0,.75-.56,.7-.75-.09-.32-.5-.73-.82-.77-.28-.04-.63,.37-.94,.58,0,.13,0,.25,.01,.38Z"/><path d="M397.49,119.85c.32-.37,.62-.58,.67-.84,.03-.16-.38-.58-.51-.55-.26,.06-.57,.32-.65,.57-.05,.16,.25,.45,.49,.83Z"/><path d="M397.74,72.91c.36,.2,.58,.41,.74,.37,.21-.05,.37-.31,.55-.47-.18-.16-.37-.44-.54-.44-.2,0-.4,.27-.74,.54Z"/><path d="M399.38,124.77c.22-.28,.4-.44,.47-.64,.02-.07-.29-.36-.39-.33-.2,.06-.36,.26-.54,.41,.13,.16,.26,.31,.47,.57Z"/><path d="M400.75,83.33c.19-.27,.4-.46,.37-.55-.06-.17-.26-.35-.43-.4-.1-.02-.37,.24-.36,.36,0,.16,.21,.31,.43,.58Z"/><path d="M396.89,122.79c.18-.29,.34-.45,.37-.63,.02-.09-.19-.23-.3-.34-.13,.15-.31,.28-.39,.46-.03,.08,.14,.25,.31,.51Z"/><path d="M396.39,130.09c.28,.22,.43,.43,.6,.45,.11,.02,.39-.27,.37-.35-.06-.18-.23-.37-.41-.43-.1-.04-.29,.16-.56,.33Z"/></g></g><g id="Dino_2"><g><path d="M150.79,105.89c.37,1.47,1.08,2.67,2.34,3.44,1.15,.71,2.37,1.31,3.59,1.92,.19,.09,.54,.03,.74-.09,4.09-2.5,8.17-5.02,12.26-7.51,1.37-.84,2.18-.51,2.66,1.01,1.34,.22,1.56,.41,1.85,1.61,.73,.06,1.19,.45,1.37,1.2,.05,.19,.3,.4,.5,.48,1.16,.46,1.49,1.29,.86,2.37-1.11,1.88-2.23,3.75-3.38,5.6-.32,.51-.35,.91-.05,1.47,1.83,3.42,1.97,6.89-.12,10.24-1.91,3.06-4.77,4.39-8.35,4.19-.42-.02-.62,.07-.88,.4-.37,.47-.83,.92-1.34,1.21-1.14,.64-2.33,1.16-3.58,1.77,.6,.49,1.17,.91,1.71,1.38,2.86,2.5,4.94,5.46,5.68,9.27,1.09,5.61-1.55,9.58-7.17,10.73-3.6,.74-7.2,.51-10.79-.06-2.97-.48-5.83-1.36-8.63-2.47-.29-.12-.71-.11-1.01,0-3.18,1.16-6.47,1.76-9.83,2.1-.28,.03-.7,.26-.79,.5-1.35,3.45-4.1,4.9-7.55,5.16-6.2,.46-11.91-1.04-17-4.67-.86-.61-1.82-.43-2.74-.53-6.21-.69-12.16-2.19-17.51-5.57-6.69-4.24-10.99-10.22-12.86-17.92-.41-1.7-.61-3.44-.28-5.19,.21-1.08,.72-1.93,1.84-2.26,1.12-.33,2.02,.11,2.76,.91,.42,.45,.79,.7,1.48,.56,2.15-.43,3.7,.6,4.98,2.26,1.54-1.77,3.36-2.24,5.5-1.17,.7-3.42,.82-3.58,4.6-5.89-.4-1.31-.86-2.58-1.16-3.89-.57-2.46,.22-4.41,2.44-5.69,1.04-.6,2.12-1.12,3.13-1.66-.27-1.24-.61-2.53-.8-3.83-.38-2.65,.47-4.31,2.85-5.58,.96-.52,1.99-.91,3.01-1.36-.21-.46-.58-.54-1.1-.52-3.44,.09-6.81-.3-9.98-1.78-3.6-1.67-4.63-3.74-3.54-7.56,.37-1.29,1.03-2.5,1.58-3.74,.13-.3,.33-.56,.49-.82-1.44-.87-2.88-1.66-4.22-2.57-2.15-1.45-3.91-3.3-5.39-5.44-1.24-1.79-1.3-3.55-.11-5.37,2-3.07,4.73-5.3,8.01-6.89,.09-.04,.18-.09,.34-.17-.31-.64-.61-1.25-.9-1.87-1.58-3.34-2.46-6.84-2.4-10.56,.03-2.03,.82-3.47,2.69-4.35,2.37-1.11,4.87-1.73,7.45-2.01,1.47-.16,2.96-.18,4.65-.27,0-1.26-.08-2.57,.02-3.86,.17-2.21,.65-4.36,1.53-6.41,.72-1.67,1.97-2.55,3.76-2.74,5.16-.53,9.85,.85,14.25,3.44,.39,.23,.78,.48,1.1,.67,1.42-1.34,2.7-2.76,4.2-3.9,1.37-1.05,2.94-1.85,4.48-2.64,.81-.42,1.72-.14,2.54,.21,2.96,1.27,5.54,3.11,7.78,5.42,.98,1.01,1.83,2.15,2.77,3.2,.2,.23,.51,.41,.81,.5,4.93,1.48,9.43,3.75,13.3,7.18,5.95,5.3,9.65,11.84,10.74,19.79,.13,.96,.1,1.95,.18,2.92,.02,.28,.11,.63,.3,.81,3.2,3.04,4.98,6.8,5.61,11.12,.69,4.73-.05,9.23-2.57,13.33-2.29,3.74-5.7,6.2-9.66,7.94-2.88,1.26-5.89,2.06-9.02,2.53Zm-42.32-53.13c-1.84,2.56-3.42,5.45-4.69,8.53-.68,1.66-1.81,3.05-3.33,4.04-.65,.42-.79,.92-.68,1.6,1.93,.25,3.01,1.64,2.69,3.53-.36,2.15-1.21,3.93-3.62,4.45-.14,.03-.33,.38-.31,.56,.07,1,.14,2,.32,2.98,1.63,8.89,6.39,15.71,13.76,20.79,1.15,.79,2.37,1.5,3.64,2.29-.58,.46-1.09,.83-1.57,1.25-2.71,2.4-5.24,4.98-7.44,7.88-2.06,2.71-3.98,5.54-5.05,8.77-1.34,4.03-2.4,8.16-3.48,12.28-.65,2.49-.55,5.04-.05,7.55,.46,2.29,1.42,4.38,2.68,6.35,.31,.49,.47,1.1,.85,1.51,.86,.9,1.82,1.7,2.72,2.56,2.11,1.98,4.54,3.45,7.25,4.39,1.54,.54,3.14,.89,4.66,1.31,0,.63-.04,1.27,.01,1.91,.05,.65,.33,1.09,1.12,1.03,.92-.07,1.85,.05,2.76-.07,3.24-.39,4.16-1.19,4.6-3.99,.27-1.68,.33-3.43,.16-5.12-.72-7.3-6.3-13.89-13.36-15.93-.83-.24-1.13-.96-.8-1.77,.09-.21,.06-.57-.06-.75-1.32-1.99-2.25-4.14-2.75-6.48-.14-.66-.16-1.37-.38-2-.74-2.14-1.54-4.28-1.27-6.59,.1-.84,.36-1.7,.72-2.48,.28-.6,.91-.9,1.62-.81,.64,.08,.82,.56,1.02,1.1,.44,1.22,.83,2.49,1.48,3.61,.62,1.08,1.03,2.32,2.03,3.19,.33,.29,.38,1.03,.71,1.15,.81,.3,1.22,1.04,1.83,1.52,1.95,1.52,4.01,2.75,6.35,3.52,2.41,.8,4.87,1.03,7.34,.38,.72-.19,1.61-.5,1.98-1.05,.5-.76,1.12-1.24,1.85-1.65,.5-.29,.51-.63,.3-1.08-.47-1.01-1.28-1.73-2.29-2.06-1.38-.46-2.81-.73-4.23-1.08-1.04-.26-2.13-.39-3.1-.8-.94-.39-.88-1.34,.04-1.8,.43-.22,.93-.31,1.28-.42-1.46-1.27-2.96-2.54-4.43-3.85-.71-.64-.62-1.31,.27-1.7,.39-.17,.96-.16,1.38-.02,.49,.17,.92,.55,1.34,.88,.86,.67,1.69,1.36,2.59,2.09,.63-1.36,1.17-2.67,1.85-3.9,.28-.51,.87-.85,1.31-1.28,.13-.13,.27-.27,.33-.43,.12-.31,.16-.65,.26-.96,.63-2.04,1.35-2.52,3.41-1.96,4.42,1.2,8.82,2.5,13.22,3.75,.25,.07,.51,.15,.98,.29-.91-2.36-1.75-4.52-2.6-6.72,.16-.03,.28-.05,.41-.08,2.94-.58,5.91-1.01,8.8-1.77,3.79-1.01,7.19-2.85,9.98-5.68,.89-.91,1.68-1.89,2.26-3.24-.37,.27-.59,.43-.81,.59-1.7,1.24-2.24,1.16-3.53-.51-.57-.73-.83-.76-1.6-.28-.96,.59-1.42,1.51-1.79,2.52-.25,.68-.75,1.09-1.5,1.12-.74,.03-1.09-.45-1.4-1.02-.2-.38-.38-.79-.64-1.14-.7-.92-1.5-1.09-2.38-.37-.55,.45-.99,1.09-1.31,1.73-.35,.69-.74,1.26-1.54,1.34-.81,.08-1.21-.49-1.58-1.13-.35-.62-.75-1.22-1.23-1.74-.51-.54-1.14-.59-1.81-.15-.88,.57-1.63,1.22-2.05,2.22-.31,.75-.82,1.33-1.73,1.29-.9-.05-1.2-.75-1.5-1.46-.22-.54-.43-1.1-.73-1.6-1.14-1.88-2.36-1.99-3.84-.36-.47,.52-.96,.97-1.71,.78-.76-.19-1.11-.8-1.26-1.51-.23-1.11-.37-2.23-.64-3.32-.15-.6-.4-1.2-.74-1.71-.34-.5-.59-.96-.34-1.56,.25-.59,.69-.95,1.34-1.01,.83-.08,1.44,.3,1.88,1.17,.4,.8,.78,1.62,1.21,2.4,.28,.51,.75,.8,1.36,.62,1.6-.47,2.81,.14,3.95,1.23,1.31,1.24,2.22,1.22,3.68,.13,1.58-1.17,2.52-1.17,4.08,0,1.2,.9,2.25,.87,3.41-.08,1.6-1.31,2.31-1.39,4.07-.28,1,.63,1.96,.53,2.88-.06,.42-.27,.76-.69,1.13-1.04,.99-.95,2.27-1.02,3.34-.18,.34,.27,.7,.54,.98,.86,.38,.43,.73,.37,1.14,.09,1.62-1.14,2.72-2.59,2.65-4.67-.03-1.02-.09-2.06-.29-3.06-.72-3.69-2.32-6.9-5.34-9.26-.37-.29-.48-.57-.51-1.02-.09-1.74-.09-3.5-.38-5.21-1.08-6.39-4.22-11.67-8.98-16.01-5.8-5.29-12.77-7.65-20.47-8.12-6.79-.42-13.26,.86-19.4,3.84-6.53,3.17-11.75,7.75-15.39,14.06-.71,1.23-1.29,2.54-1.93,3.82,.06,.04,.12,.07,.19,.11,.18-.26,.35-.53,.53-.79,1.13-1.63,2.16-3.35,3.44-4.86,1.45-1.71,3.07-3.3,4.75-4.8,.95-.85,1.84-2.03,3.38-1.81,.06,.16,.15,.38,.28,.71Zm20.78,99.61c2.66,.24,9.19-1.62,13.12-3.7,3.78-2,8.87-7.58,9.04-9.92-1.12,.52-2.37,.81-3.15,1.92-.19,.27-.57,.44-.89,.59-2.33,1.07-5.37,.54-7.24-1.22-.21-.2-.5-.36-.77-.42-4.85-1.17-9.71-2.32-14.57-3.48-.61-.15-1.22-.3-2.04-.51,4.49,4.82,6.69,10.31,6.52,16.75Zm19.29-33.06c-3.32-.97-6.49-1.91-9.66-2.82-2.58-.75-5.17-1.47-7.77-2.19-.21-.06-.6-.05-.67,.07-.45,.79-.84,1.61-1.33,2.6,.64-.04,1.28,.08,1.39-.11,.37-.62,.81-.33,1.19-.22,.91,.26,1.82,.54,2.7,.89,2.75,1.11,4.5,3.69,4.49,6.68-.02,3.77-1.96,6.48-4.84,8.66-.19,.14-.37,.28-.56,.43,.01,.09,.02,.18,.03,.27,2,.42,3.99,.82,5.98,1.27,.6,.13,.86-.09,1.12-.6,2.14-4.09,4.3-8.17,6.46-12.25,.45-.85,.92-1.7,1.45-2.67Zm7.05,17.72c-.21,.74-.66,1.45-.49,1.92,.27,.72-.06,1.15-.28,1.69-.58,1.45-1.25,2.87-1.7,4.36-.73,2.42-.84,4.89,.02,7.33,.22,.61,.56,1.1,1.23,1.09,2.17-.01,4.36,0,6.38-.99,1.81-.89,2.68-2.34,2.54-4.34-.37-5.16-3.59-8.33-7.71-11.07Zm-62.69-3.91c-3.12,.84-6.39,1.42-9.78,.8-3.34-.61-6.35-1.96-9.18-3.92,.29,1.44,.44,2.95,1.16,4.13,.81,1.33,2.04,2.44,3.23,3.49,3.05,2.69,6.69,4.03,10.72,4.25,1.54,.08,3.09-.1,4.55-.16-.24-2.98-.47-5.75-.7-8.6Zm7.18-82.15c0-.09,0-.18,0-.27-.68-.18-1.35-.45-2.04-.52-3.04-.31-5.97,.26-8.81,1.33-1.53,.58-1.74,.88-1.65,2.51,.16,2.75,.94,5.35,2.13,7.82,.46,.96,1.03,1.86,1.67,3.01,1.85-5.49,4.68-10.06,8.7-13.88Zm-23.43,87.01c1.95,6.59,14.62,14.78,22.63,14.55-1.61-1.94-2.91-4.05-3.92-6.34-.1-.23-.49-.4-.78-.45-1.33-.24-2.69-.36-4.02-.64-4.16-.88-8.03-2.46-11.45-5.02-.87-.65-1.66-1.41-2.46-2.09Zm86.72-19.1c-.21,.44-.31,.67-.43,.89-1.53,2.7-3.09,5.38-4.59,8.1-.56,1.01-1,2.07-1.45,3.14-.1,.25,0,.58,.01,.88,.27-.02,.56,.03,.8-.07,1.23-.5,2.46-1.02,3.67-1.58,.32-.15,.66-.4,.83-.7,1.76-2.95,3.46-5.94,5.23-8.88,1.15-1.91,2.39-3.76,3.58-5.64,.35-.54,.67-1.1,1.01-1.65-3.14,1.33-6.19,2.73-9.16,4.28-.6,.31-.92,1.17-1.37,1.77l.22,.21c.48-.21,.95-.42,1.64-.73ZM102.61,48.37c4.35-3.64,8.9-6.38,14.3-7.86-.34-.27-.55-.49-.8-.62-1.16-.59-2.3-1.26-3.51-1.72-2.46-.94-5.02-1.39-7.68-1.17-.82,.06-1.24,.47-1.49,1.2-.65,1.93-1.04,3.92-1.04,5.96,0,1.34,.13,2.68,.22,4.21Zm-14.17,31.38c.02-.33,.01-.55,.04-.77,.21-1.62,.35-3.26,.66-4.86,.28-1.45,.77-2.86,1.13-4.3,.08-.33,.05-.7,.07-1.04-.37-.01-.74-.04-1.11-.02-.17,0-.35,.09-.5,.18-1.4,.84-2.89,1.57-4.15,2.59-.99,.8-1.7,1.95-2.48,2.99-.18,.24-.26,.77-.12,1,.49,.77,1.1,1.47,1.67,2.19,.06-.05,.13-.1,.19-.15-.23-.35-.46-.71-.79-1.21,1.74,1.37,3.38,2.61,5.38,3.41Zm57.2,52.98c.57,.99,1.48,1.01,2.37,1.17,1.48,.28,2.45-.18,3.1-1.6,.55-1.22,1.34-2.34,2.1-3.64-2.08,.04-3.78-.52-5.13-2.07-1.17,2.26-2.29,4.42-3.4,6.58,.05,.02,.1,.05,.15,.07,.25-.15,.49-.31,.81-.51Zm9.49-14.85c-.12-1.05-.65-1.89-1.46-2.44-1.18-.81-2.37-1.69-3.69-2.17-3.49-1.25-7.04-2.34-10.6-3.41-1.71-.52-3.48-.85-5.22-1.28-.51-.13-.85,.04-.98,.57-.15,.62,.37,.58,.69,.67,2.32,.64,4.65,1.23,6.96,1.88,2.22,.63,4.42,1.31,6.62,2,.41,.13,.95,.21,.78,.83,2.35,1.04,4.96,1.46,6.9,3.35Zm-3.53,2.1c-.67,.89-.69,1.99-1.43,2.73-.3,.29-.46,.74-.63,1.13-.07,.16-.12,.47-.03,.55,.46,.42,.91,.99,1.47,1.15,.97,.28,2,.37,3.01,.4,.36,0,.84-.33,1.09-.65,.53-.68,.97-1.44,1.42-2.18,.37-.62,.71-1.25,1.18-2.09-2.36,.88-4.25,.34-6.07-1.03Zm-16.01-80.87c-1.73-1.75-3.6-3.29-5.88-4.23-.4-.17-.99-.19-1.38-.02-2.09,.94-3.61,2.61-5.14,4.28,4.14-.76,8.25-.67,12.4-.04Zm18.62,79.11s.06-.09,.09-.13c-.11-.13-.19-.31-.33-.39-1.07-.58-2.1-1.32-3.25-1.68-3.78-1.21-7.59-2.31-11.4-3.41-2.09-.6-4.2-1.13-6.31-1.66-.28-.07-.78,0-.91,.19-.48,.68,.19,.72,.6,.84,6.83,2,13.66,3.99,20.5,5.98,.34,.1,.69,.17,1.03,.26Zm1.5-.12c.17-.12,.24-.15,.29-.2,1.97-2.55,4.56-4.32,7.32-5.88,2.36-1.34,4.75-2.62,7.12-3.95,.2-.11,.45-.47,.39-.6-.11-.28-.37-.6-.63-.68-.23-.07-.58,.13-.84,.28-2.89,1.65-5.79,3.28-8.65,5-1.58,.95-3.04,2.1-4.12,3.64-.48,.68-.98,1.38-.88,2.4Zm.8,.26c.04,.06,.09,.12,.13,.18,.44-.22,.92-.39,1.33-.67,.8-.55,1.5-1.28,2.35-1.72,3.01-1.54,6.07-2.99,9.11-4.46,1.26-.61,2.54-1.18,3.8-1.76-.42-1.13-.44-1.17-1.36-.74-3.36,1.58-6.73,3.16-10.06,4.8-1.82,.9-3.52,2.01-4.81,3.65-.18,.23-.33,.48-.5,.72Zm9.59,10.05c2.12,0,3.35-1.2,4.36-2.58,1.18-1.6,1.3-4.1,.44-5.67-1.59,2.73-3.15,5.41-4.8,8.25Zm-61.89-23.88c-.46-.33-.8-.7-1.22-.86-1.32-.51-2.38,.16-3.38,.92-.71,.54-1.04,1.3-.9,2.16,.12,.83,.37,1.63,.61,2.62,.99-2.36,2.77-3.65,4.89-4.86Zm-5.91,9.96c-1.47-.31-3.39,.47-4.07,1.63-.93,1.58,.09,2.9,.56,4.22,1.97-1.48,1.89-4.08,3.51-5.85Zm-4.94-20.48c.05-.07,.11-.14,.16-.21-.09-.2-.18-.41-.27-.61-.32-.72-.69-1.43-.94-2.18-.27-.82-.47-1.66,0-2.53,.16-.28,0-.74-.03-1.12-.08,0-.16-.01-.24-.02-1.17,1.61-2.18,3.31-2.17,5.41,0,.35,.22,.69,.34,1.04,.06-.02,.12-.04,.18-.06,.01-.22,.02-.43,.03-.6,1,.3,1.96,.59,2.93,.88Zm.75,31.48c-2.52-.56-4.34,1.96-3.43,4.87,.37-.39,.7-.72,1-1.08,.44-.53,.76-1.22,1.31-1.58,.88-.56,.86-1.42,1.11-2.22Zm48.78,12.83c1.58,1.27,4.33,.71,4.86-1-1.47,.17-2.71-.33-3.81-1.34-.39,.88-.72,1.61-1.05,2.34Zm-21.63-5.59c-1.94-.93-3.85-1.84-5.77-2.75-.19,.76,.04,1.21,.85,1.48,.8,.26,1.57,.64,2.3,1.06,.88,.5,1.7,1.09,2.51,1.63,.04-.51,.08-1.01,.11-1.41Zm-37.49-1.26h3.08c-.52-.69-.93-1.36-1.79-1.26-.68,.08-1.04,.63-1.29,1.26Zm13.26,1.04s-.01,0-.02,0v5.48c.11-.92,.04-1.83,.02-2.74-.02-.91,0-1.83,0-2.74Z"/><g><rect class="cls-2" x="120.48" y="71.41" width="40.91" height="13.98"/><path class="cls-2" d="M108.47,52.75c-.13-.33-.22-.55-.28-.71-1.54-.23-2.43,.96-3.38,1.81-1.68,1.5-3.29,3.09-4.75,4.8-1.28,1.51-2.3,3.23-3.44,4.86-.18,.26-.35,.53-.53,.79-.06-.04-.12-.07-.19-.11,.64-1.27,1.22-2.58,1.93-3.82,3.65-6.31,8.87-10.89,15.39-14.06,6.14-2.98,12.61-4.26,19.4-3.84,7.7,.48,14.67,2.83,20.47,8.12,4.76,4.34,7.9,9.62,8.98,16.01,.29,1.71,.29,3.47,.38,5.21,.02,.45,.13,.73,.51,1.02,3.02,2.36,4.62,5.57,5.34,9.26,.19,1,.25,2.04,.29,3.06,.07,2.08-1.03,3.53-2.65,4.67-.41,.28-.76,.34-1.14-.09-.29-.32-.64-.59-.98-.86-1.07-.84-2.36-.77-3.34,.18-.37,.36-.7,.77-1.13,1.04-.93,.59-1.88,.69-2.88,.06-1.75-1.11-2.47-1.04-4.07,.28-1.16,.95-2.21,.98-3.41,.08-1.56-1.17-2.5-1.17-4.08,0-1.46,1.09-2.37,1.1-3.68-.13-1.14-1.08-2.36-1.69-3.95-1.23-.61,.18-1.07-.11-1.36-.62-.44-.78-.81-1.6-1.21-2.4-.44-.87-1.05-1.25-1.88-1.17-.65,.06-1.09,.42-1.34,1.01-.25,.6,0,1.05,.34,1.56,.34,.51,.6,1.11,.74,1.71,.27,1.09,.41,2.22,.64,3.32,.15,.71,.5,1.32,1.26,1.51,.75,.19,1.24-.26,1.71-.78,1.48-1.63,2.7-1.52,3.84,.36,.3,.5,.51,1.06,.73,1.6,.29,.71,.6,1.41,1.5,1.46,.9,.05,1.42-.53,1.73-1.29,.41-1.01,1.17-1.65,2.05-2.22,.67-.44,1.3-.39,1.81,.15,.48,.51,.88,1.12,1.23,1.74,.37,.64,.77,1.21,1.58,1.13,.79-.08,1.19-.65,1.54-1.34,.32-.64,.77-1.28,1.31-1.73,.88-.72,1.68-.55,2.38,.37,.26,.34,.44,.75,.64,1.14,.3,.57,.66,1.05,1.4,1.02,.75-.03,1.25-.44,1.5-1.12,.37-1.01,.83-1.92,1.79-2.52,.77-.48,1.04-.46,1.6,.28,1.29,1.67,1.83,1.75,3.53,.51,.22-.16,.44-.32,.81-.59-.58,1.35-1.36,2.33-2.26,3.24-2.79,2.83-6.19,4.67-9.98,5.68-2.88,.77-5.86,1.2-8.8,1.77-.12,.02-.24,.05-.41,.08,.85,2.2,1.69,4.36,2.6,6.72-.47-.14-.73-.22-.98-.29-4.41-1.26-8.8-2.55-13.22-3.75-2.06-.56-2.78-.09-3.41,1.96-.1,.32-.15,.65-.26,.96-.06,.16-.2,.3-.33,.43-.44,.43-1.03,.77-1.31,1.28-.68,1.23-1.21,2.54-1.85,3.9-.89-.72-1.73-1.42-2.59-2.09-.42-.33-.85-.71-1.34-.88-.42-.14-.99-.15-1.38,.02-.88,.39-.97,1.06-.27,1.7,1.46,1.31,2.97,2.59,4.43,3.85-.34,.11-.84,.2-1.28,.42-.92,.46-.98,1.41-.04,1.8,.98,.41,2.06,.54,3.1,.8,1.41,.35,2.85,.62,4.23,1.08,1.01,.34,1.81,1.05,2.29,2.06,.21,.46,.21,.8-.3,1.08-.73,.41-1.35,.89-1.85,1.65-.36,.55-1.26,.86-1.98,1.05-2.47,.65-4.93,.41-7.34-.38-2.34-.77-4.4-2-6.35-3.52-.61-.48-1.02-1.22-1.83-1.52-.33-.12-.38-.87-.71-1.15-1-.87-1.4-2.1-2.03-3.19-.64-1.12-1.03-2.39-1.48-3.61-.2-.54-.38-1.02-1.02-1.1-.71-.09-1.34,.21-1.62,.81-.36,.77-.62,1.63-.72,2.48-.27,2.32,.53,4.45,1.27,6.59,.22,.63,.24,1.34,.38,2,.5,2.34,1.43,4.49,2.75,6.48,.12,.19,.15,.54,.06,.75-.33,.81-.03,1.53,.8,1.77,7.05,2.04,12.64,8.63,13.36,15.93,.17,1.69,.11,3.45-.16,5.12-.45,2.8-1.37,3.6-4.6,3.99-.91,.11-1.84,0-2.76,.07-.79,.06-1.07-.37-1.12-1.03-.05-.63-.01-1.28-.01-1.91-1.52-.42-3.12-.77-4.66-1.31-2.72-.95-5.14-2.42-7.25-4.39-.91-.85-1.87-1.65-2.72-2.56-.39-.41-.54-1.02-.85-1.51-1.26-1.96-2.23-4.06-2.68-6.35-.5-2.51-.6-5.06,.05-7.55,1.08-4.11,2.14-8.24,3.48-12.28,1.07-3.23,2.99-6.05,5.05-8.77,2.2-2.89,4.72-5.47,7.44-7.88,.47-.42,.99-.79,1.57-1.25-1.27-.8-2.49-1.5-3.64-2.29-7.37-5.08-12.13-11.9-13.76-20.79-.18-.98-.25-1.98-.32-2.98-.01-.19,.17-.53,.31-.56,2.41-.52,3.26-2.31,3.62-4.45,.32-1.88-.76-3.28-2.69-3.53-.11-.67,.03-1.18,.68-1.6,1.52-.99,2.65-2.38,3.33-4.04,1.26-3.08,2.85-5.97,4.69-8.53Zm23.53,24.53c-.11-.49-.19-1.41-.52-2.22-.99-2.46-3.77-3.03-5.46-1.17-1.69,1.85-2.09,5.67-.82,7.81,1.13,1.9,3.41,2.26,5.05,.77,1.41-1.28,1.61-3.02,1.75-5.18Zm-14.36-26.07c-1.15,.02-2.22,.67-2.68,1.63-.67,1.41,.16,2.88,1.72,2.89,.69,0,1.42-.2,2.05-.49,1-.47,1.46-1.54,1.21-2.5-.25-.96-1.13-1.55-2.3-1.53Zm-6.85,10.61c1.58,.01,3.1-1.2,3.12-2.51,.02-1.14-1.01-2.06-2.32-2.06-1.63,0-2.94,1.18-2.94,2.63,0,1.14,.86,1.92,2.14,1.93Zm39.47,16.55c-1.46,0-2.71,1.1-2.88,2.57-.07,.61,.08,1.16,.73,1.35,.64,.19,1.04-.11,1.32-.71,.46-1,.91-1.04,1.59-.2,.33,.4,.68,.72,1.24,.45,.52-.25,.74-.67,.69-1.25-.11-1.26-1.26-2.21-2.7-2.21Zm11.14,2.16c0-1.41-.87-2.51-1.95-2.77-1.22-.3-2.4,.25-3.02,1.4-.4,.75-.33,1.46,.19,1.8,.71,.45,1.13,.02,1.52-.52,.34-.46,.71-.45,1.06,0,.11,.14,.21,.29,.3,.45,.29,.46,.75,.62,1.19,.39,.35-.19,.58-.6,.71-.75Zm-56.28-13.61c1.26-.06,2.27-1.06,2.2-2.19-.06-.94-.87-1.63-1.9-1.6-1.11,.03-2.09,1.07-2.06,2.16,.03,.96,.8,1.67,1.76,1.63Zm-1.57,9.44c-1.05,0-1.87,.79-1.89,1.81-.02,.95,.72,1.67,1.72,1.66,1.03-.01,1.96-.93,1.92-1.9-.03-.88-.8-1.57-1.75-1.56Zm21.33-28.38c.01-.63-.61-1.19-1.34-1.2-.86-.01-1.56,.58-1.59,1.34-.03,.65,.52,1.22,1.2,1.25,.87,.04,1.72-.65,1.74-1.39Zm-22.99,83.78c0-.7-.63-1.29-1.37-1.28-.71,0-1.27,.62-1.25,1.38,.02,.7,.59,1.26,1.29,1.26,.68,0,1.32-.66,1.32-1.35Zm14.44-82.16c.84,0,1.48-.53,1.48-1.22,0-.63-.52-1.15-1.18-1.15-.81,0-1.57,.65-1.57,1.37,0,.64,.46,1.01,1.26,1Zm-10.17,76.83c-.73-.01-1.18,.44-1.19,1.2,0,.62,.52,1.11,1.2,1.13,.63,.02,1.16-.51,1.15-1.18,0-.67-.47-1.14-1.17-1.15Zm-.41-57.43c0,.12-.02,.25-.03,.37,.32,.25,.61,.63,.97,.71,.5,.1,.87-.26,.93-.79,.07-.58-.33-.91-.82-.87-.37,.03-.7,.38-1.06,.58Zm20.63-16.57c0-.13,0-.25,.01-.38-.32-.21-.66-.62-.94-.58-.32,.04-.73,.45-.82,.77-.05,.19,.45,.75,.7,.75,.35,0,.7-.36,1.05-.57Zm-21.87,67.39c.24-.38,.54-.66,.49-.83-.08-.25-.39-.51-.65-.57-.14-.03-.54,.39-.51,.55,.05,.26,.35,.47,.67,.84Zm-.25-46.94c-.35-.27-.54-.53-.74-.54-.18,0-.36,.28-.54,.44,.18,.17,.34,.42,.55,.47,.15,.04,.38-.18,.74-.37Zm-1.64,51.86c.21-.26,.34-.41,.47-.57-.18-.14-.34-.35-.54-.41-.1-.03-.42,.26-.39,.33,.07,.2,.25,.36,.47,.64Zm-1.36-41.44c.21-.27,.42-.42,.43-.58,0-.12-.27-.38-.36-.36-.17,.04-.37,.22-.43,.4-.04,.09,.18,.28,.37,.55Zm3.85,39.46c.17-.27,.35-.43,.31-.51-.07-.18-.25-.31-.39-.46-.11,.11-.32,.25-.3,.34,.03,.18,.19,.34,.37,.63Zm.51,7.3c-.27-.17-.46-.36-.56-.33-.17,.06-.35,.26-.41,.43-.03,.07,.26,.36,.37,.35,.17-.03,.32-.23,.6-.45Z"/><path class="cls-2" d="M129.25,152.36c.17-6.44-2.03-11.93-6.52-16.75,.82,.2,1.43,.36,2.04,.51,4.86,1.16,9.72,2.31,14.57,3.48,.28,.07,.57,.23,.77,.42,1.87,1.77,4.91,2.3,7.24,1.22,.32-.15,.7-.32,.89-.59,.79-1.1,2.03-1.4,3.15-1.92-.17,2.34-5.25,7.92-9.04,9.92-3.93,2.08-10.46,3.94-13.12,3.7Z"/><path class="cls-2" d="M155.59,137.02c4.12,2.74,7.34,5.91,7.71,11.07,.14,2.01-.73,3.46-2.54,4.34-2.03,.99-4.21,.98-6.38,.99-.67,0-1.01-.48-1.23-1.09-.86-2.45-.75-4.91-.02-7.33,.45-1.49,1.12-2.91,1.7-4.36,.21-.54,.54-.97,.28-1.69-.17-.48,.28-1.18,.49-1.92Z"/><path class="cls-2" d="M92.9,133.12c.23,2.85,.46,5.62,.7,8.6-1.46,.06-3.01,.24-4.55,.16-4.03-.22-7.67-1.56-10.72-4.25-1.19-1.05-2.42-2.16-3.23-3.49-.71-1.17-.87-2.68-1.16-4.13,2.83,1.96,5.84,3.31,9.18,3.92,3.38,.61,6.66,.04,9.78-.8Z"/></g><path class="cls-7" d="M76.66,137.97c.8,.68,1.59,1.44,2.46,2.09,3.43,2.56,7.3,4.14,11.45,5.02,1.32,.28,2.68,.4,4.02,.64,.28,.05,.68,.23,.78,.45,1.01,2.29,2.31,4.4,3.92,6.34-8.01,.23-20.68-7.96-22.63-14.55Z"/><g><path class="cls-3" d="M155.14,117.89c-1.94-1.89-4.55-2.31-6.9-3.35,.17-.62-.37-.7-.78-.83-2.2-.68-4.4-1.37-6.62-2-2.31-.66-4.64-1.25-6.96-1.88-.33-.09-.85-.06-.69-.67,.13-.53,.47-.69,.98-.57,1.74,.42,3.51,.76,5.22,1.28,3.55,1.07,7.11,2.16,10.6,3.41,1.32,.47,2.51,1.36,3.69,2.17,.81,.55,1.34,1.39,1.46,2.44Z"/><path class="cls-3" d="M154.22,118.23c-.34-.08-.69-.16-1.03-.26-6.83-1.99-13.67-3.98-20.5-5.98-.41-.12-1.07-.16-.6-.84,.13-.19,.63-.26,.91-.19,2.11,.52,4.22,1.05,6.31,1.66,3.81,1.1,7.63,2.2,11.4,3.41,1.15,.37,2.17,1.1,3.25,1.68,.14,.08,.22,.26,.33,.39-.03,.04-.06,.09-.09,.13Z"/><path class="cls-3" d="M155.72,118.11c-.1-1.01,.41-1.72,.88-2.4,1.08-1.54,2.54-2.68,4.12-3.64,2.85-1.72,5.76-3.35,8.65-5,.26-.15,.61-.35,.84-.28,.26,.08,.52,.4,.63,.68,.05,.13-.2,.49-.39,.6-2.37,1.33-4.76,2.61-7.12,3.95-2.76,1.56-5.35,3.33-7.32,5.88-.04,.06-.12,.09-.29,.2Z"/><path class="cls-3" d="M156.51,118.38c.17-.24,.32-.49,.5-.72,1.29-1.63,2.98-2.75,4.81-3.65,3.33-1.65,6.7-3.22,10.06-4.8,.91-.43,.93-.39,1.36,.74-1.26,.58-2.54,1.15-3.8,1.76-3.05,1.47-6.1,2.92-9.11,4.46-.85,.44-1.55,1.17-2.35,1.72-.4,.28-.88,.45-1.33,.67-.04-.06-.09-.12-.13-.18Z"/></g><path class="cls-1" d="M166.11,128.43c1.65-2.84,3.21-5.52,4.8-8.25,.86,1.58,.74,4.08-.44,5.67-1.01,1.37-2.24,2.57-4.36,2.58Z"/><g><path class="cls-6" d="M148.54,119.3c-.53,.97-1,1.82-1.45,2.67-2.16,4.08-4.32,8.16-6.46,12.25-.26,.51-.53,.73-1.12,.6-1.99-.45-3.99-.85-5.98-1.27-.01-.09-.02-.18-.03-.27,.19-.14,.37-.29,.56-.43,2.88-2.18,4.82-4.9,4.84-8.66,.01-2.98-1.73-5.56-4.49-6.68-.88-.36-1.79-.64-2.7-.89-.39-.11-.83-.4-1.19,.22-.11,.19-.75,.07-1.39,.11,.5-.99,.88-1.81,1.33-2.6,.07-.12,.46-.12,.67-.07,2.59,.72,5.18,1.44,7.77,2.19,3.17,.92,6.34,1.85,9.66,2.82Z"/><path class="cls-6" d="M163.38,118.87c-.69,.31-1.16,.52-1.64,.73l-.22-.21c.45-.6,.77-1.46,1.37-1.77,2.97-1.54,6.01-2.94,9.16-4.28-.34,.55-.66,1.11-1.01,1.65-1.19,1.88-2.43,3.73-3.58,5.64-1.77,2.94-3.47,5.93-5.23,8.88-.18,.3-.51,.55-.83,.7-1.21,.56-2.44,1.08-3.67,1.58-.24,.1-.53,.05-.8,.07,0-.29-.12-.63-.01-.88,.45-1.06,.89-2.13,1.45-3.14,1.5-2.72,3.06-5.4,4.59-8.1,.12-.22,.22-.45,.43-.89Z"/><path class="cls-6" d="M145.65,132.73c-.32,.2-.57,.36-.81,.51-.05-.02-.1-.05-.15-.07,1.12-2.16,2.24-4.32,3.4-6.58,1.35,1.55,3.05,2.12,5.13,2.07-.76,1.3-1.54,2.41-2.1,3.64-.65,1.43-1.62,1.88-3.1,1.6-.89-.16-1.8-.19-2.37-1.17Z"/><path class="cls-6" d="M151.61,119.99c1.82,1.37,3.71,1.91,6.07,1.03-.47,.83-.81,1.47-1.18,2.09-.45,.74-.89,1.5-1.42,2.18-.25,.32-.72,.66-1.09,.65-1.01-.02-2.05-.12-3.01-.4-.56-.16-1.01-.72-1.47-1.15-.09-.08-.04-.39,.03-.55,.18-.4,.34-.84,.63-1.13,.74-.74,.77-1.84,1.43-2.73Z"/><path class="cls-6" d="M142.89,138.34c.32-.73,.66-1.46,1.05-2.34,1.1,1.01,2.34,1.52,3.81,1.34-.52,1.71-3.28,2.26-4.86,1Z"/></g><path class="cls-2" d="M121.26,132.75c-.03,.39-.07,.9-.11,1.41-.81-.53-1.63-1.13-2.51-1.63-.73-.42-1.5-.8-2.3-1.06-.81-.27-1.05-.72-.85-1.48,1.92,.92,3.83,1.83,5.77,2.75Z"/><g><path class="cls-7" d="M100.09,50.97c-4.01,3.82-6.84,8.39-8.7,13.88-.64-1.14-1.21-2.05-1.67-3.01-1.2-2.47-1.98-5.07-2.13-7.82-.09-1.63,.12-1.94,1.65-2.51,2.84-1.07,5.77-1.64,8.81-1.33,.69,.07,1.36,.34,2.04,.52,0,.09,0,.18,0,.27Z"/><path class="cls-7" d="M102.61,48.37c-.08-1.54-.22-2.88-.22-4.21,0-2.04,.39-4.02,1.04-5.96,.25-.73,.67-1.14,1.49-1.2,2.66-.21,5.22,.23,7.68,1.17,1.21,.46,2.35,1.13,3.51,1.72,.25,.13,.46,.35,.8,.62-5.41,1.48-9.95,4.21-14.3,7.86Z"/><path class="cls-7" d="M88.45,79.75c-2.01-.8-3.64-2.04-5.38-3.41,.33,.5,.56,.86,.79,1.21-.06,.05-.13,.1-.19,.15-.57-.72-1.18-1.42-1.67-2.19-.14-.22-.06-.76,.12-1,.77-1.04,1.49-2.19,2.48-2.99,1.26-1.02,2.75-1.74,4.15-2.59,.15-.09,.33-.17,.5-.18,.37-.02,.74,.01,1.11,.02-.02,.35,.01,.71-.07,1.04-.37,1.44-.85,2.85-1.13,4.3-.31,1.6-.45,3.24-.66,4.86-.03,.22-.02,.45-.04,.77Z"/><path class="cls-7" d="M135.6,39.12c-4.14-.63-8.25-.73-12.4,.04,1.53-1.67,3.04-3.34,5.14-4.28,.39-.17,.98-.15,1.38,.02,2.28,.94,4.15,2.48,5.88,4.23Z"/><path class="cls-7" d="M104.22,104.55c-2.12,1.2-3.9,2.5-4.89,4.86-.24-.99-.49-1.8-.61-2.62-.13-.87,.2-1.62,.9-2.16,1-.76,2.05-1.43,3.38-.92,.42,.16,.76,.52,1.22,.86Z"/><path class="cls-7" d="M98.31,114.51c-1.62,1.78-1.54,4.37-3.51,5.85-.46-1.31-1.49-2.64-.56-4.22,.69-1.16,2.6-1.94,4.07-1.63Z"/><path class="cls-7" d="M93.37,94.03c-.96-.29-1.93-.58-2.93-.88,0,.17-.02,.39-.03,.6-.06,.02-.12,.04-.18,.06-.12-.35-.33-.69-.34-1.04-.01-2.1,.99-3.8,2.17-5.41,.08,0,.16,.01,.24,.02,.02,.38,.18,.84,.03,1.12-.48,.87-.28,1.71,0,2.53,.25,.75,.62,1.45,.94,2.18,.09,.2,.18,.41,.27,.61-.05,.07-.11,.14-.16,.21Z"/><path class="cls-7" d="M94.11,125.51c-.25,.8-.24,1.65-1.11,2.22-.55,.35-.87,1.05-1.31,1.58-.3,.36-.64,.69-1,1.08-.91-2.91,.91-5.42,3.43-4.87Z"/><path class="cls-7" d="M83.76,131.5c.25-.63,.61-1.18,1.29-1.26,.86-.1,1.27,.57,1.79,1.26h-3.08Z"/></g><path d="M143.75,68.77c-.23,3.41-.54,6.15-2.76,8.17-2.58,2.35-6.18,1.78-7.96-1.22-2-3.38-1.37-9.4,1.29-12.31,2.67-2.92,7.06-2.02,8.61,1.85,.51,1.28,.64,2.72,.81,3.5Z"/><path d="M117.64,51.21c1.17-.02,2.06,.57,2.3,1.53,.24,.95-.21,2.03-1.21,2.5-.63,.29-1.36,.49-2.05,.49-1.56,0-2.39-1.48-1.72-2.89,.46-.96,1.53-1.62,2.68-1.63Z"/><path d="M110.79,61.82c-1.27-.01-2.14-.79-2.14-1.93,0-1.45,1.31-2.63,2.94-2.63,1.31,0,2.34,.91,2.32,2.06-.03,1.31-1.54,2.52-3.12,2.51Z"/><path d="M105.12,66.93c-.96,.04-1.73-.67-1.76-1.63-.03-1.1,.95-2.13,2.06-2.16,1.03-.03,1.84,.66,1.9,1.6,.07,1.13-.94,2.14-2.2,2.19Z"/><path d="M103.56,76.37c.95,0,1.72,.68,1.75,1.56,.03,.97-.89,1.89-1.92,1.9-.99,.01-1.73-.7-1.72-1.66,.02-1.02,.84-1.8,1.89-1.81Z"/><path d="M124.89,48c-.02,.75-.87,1.43-1.74,1.39-.68-.03-1.22-.6-1.2-1.25,.03-.76,.74-1.35,1.59-1.34,.73,0,1.36,.56,1.34,1.2Z"/><path d="M101.9,131.78c0,.69-.64,1.35-1.32,1.35-.7,0-1.27-.56-1.29-1.26-.02-.76,.54-1.37,1.25-1.38,.74,0,1.36,.59,1.37,1.28Z"/><path d="M116.35,49.62c-.8,0-1.26-.36-1.26-1,0-.71,.76-1.37,1.57-1.37,.66,0,1.18,.52,1.18,1.15,0,.69-.64,1.21-1.48,1.22Z"/><path d="M106.18,126.45c.7,.01,1.17,.48,1.17,1.15,0,.67-.52,1.2-1.15,1.18-.69-.02-1.21-.52-1.2-1.13,0-.75,.46-1.21,1.19-1.2Z"/><path d="M105.77,69.02c.35-.21,.69-.55,1.06-.58,.48-.04,.89,.29,.82,.87-.06,.53-.43,.89-.93,.79-.36-.07-.65-.46-.97-.71,0-.12,.02-.25,.03-.37Z"/><path d="M126.4,52.45c-.35,.21-.7,.58-1.05,.57-.26,0-.75-.56-.7-.75,.09-.32,.5-.73,.82-.77,.28-.04,.63,.37,.94,.58,0,.13,0,.25-.01,.38Z"/><path d="M104.53,119.85c-.32-.37-.62-.58-.67-.84-.03-.16,.38-.58,.51-.55,.26,.06,.57,.32,.65,.57,.05,.16-.25,.45-.49,.83Z"/><path d="M104.28,72.91c-.36,.2-.58,.41-.74,.37-.21-.05-.37-.31-.55-.47,.18-.16,.37-.44,.54-.44,.2,0,.4,.27,.74,.54Z"/><path d="M102.64,124.77c-.22-.28-.4-.44-.47-.64-.02-.07,.29-.36,.39-.33,.2,.06,.36,.26,.54,.41-.13,.16-.26,.31-.47,.57Z"/><path d="M101.28,83.33c-.19-.27-.4-.46-.37-.55,.06-.17,.26-.35,.43-.4,.1-.02,.37,.24,.36,.36,0,.16-.21,.31-.43,.58Z"/><path d="M105.13,122.79c-.18-.29-.34-.45-.37-.63-.02-.09,.19-.23,.3-.34,.13,.15,.31,.28,.39,.46,.03,.08-.14,.25-.31,.51Z"/><path d="M105.64,130.09c-.28,.22-.43,.43-.6,.45-.11,.02-.39-.27-.37-.35,.06-.18,.23-.37,.41-.43,.1-.04,.29,.16,.56,.33Z"/></g></g></svg>