<svg xmlns="http://www.w3.org/2000/svg" height="48" viewBox="0 -960 960 960" width="48"><path d="m402.732-103.078-18.077-119.308q-17.347-5.461-41.501-18.961-24.154-13.5-45-30.154l-110.422 50.307-78.384-138.844 100.461-73.577q-2.192-10.706-2.981-22.68-.788-11.974-.788-23.32 0-9.847.788-22.462.789-12.616 2.789-24.923l-100.269-74.346 78.384-137.383 110.845 49.846q17.501-14.231 40.578-27.731 23.077-13.5 45.115-20.193l18.462-120.422h155.229l18.076 119.692q21.693 7.961 44.02 20.538t40.019 28.116l113.269-49.846 77.999 137.383-102.922 74.541q2.077 11.882 3.115 23.805 1.039 11.923 1.039 22.904 0 10.596-1.135 22.353-1.135 11.757-3.212 24.249l102.231 73.456-78.384 138.844-112-51q-18.048 15.749-39.563 29.029-21.514 13.279-44.476 20.395l-18.076 119.692H402.732Zm34.73-43.845h84.663l14.999-112.116q31.538-8.065 58.403-23.385 26.865-15.319 51.934-39.884l104.962 45.539 39.5-70.201-92.769-68.569q3.5-17.769 6.153-33.401 2.654-15.633 2.654-31.275 0-16.593-2.096-31.727-2.096-15.135-6.711-31.75L792.692-613 753.5-683.538 647.269-638q-21.154-23.077-50.673-41.154-29.519-18.077-59.942-22.5l-13.643-111.73h-85.857l-12.731 111.587q-34.23 7.066-61.173 22.393-26.942 15.327-51.711 41.02l-104.346-45.154L167-613l92.654 67.346q-4.385 16.154-6.692 32.404-2.308 16.249-2.308 33.104 0 17.031 2.058 32.704 2.057 15.673 6.057 32.211L167-347.308l39.968 70.539 104.378-44.847q24.116 24.885 51.808 40.173 27.692 15.289 60.799 23.289l13.509 111.231Zm41.1-221.924q46.358 0 78.686-32.362 32.328-32.361 32.328-78.807 0-46.445-32.357-78.791t-78.796-32.346q-46.769 0-78.961 32.362-32.192 32.361-32.192 78.807 0 46.445 32.192 78.791t79.1 32.346Zm1.63-111.653Z"/></svg>