<svg xmlns="http://www.w3.org/2000/svg" viewBox="0 0 500 200"><defs><style>.cls-1{fill:}.cls-2{fill:}.cls-3{fill:}.cls-4{fill:}.cls-5{fill:}.cls-6{fill:}.cls-7{fill:}.cls-8{fill:}.cls-9{fill:}.cls-10{fill:}</style></defs><g id="Layer_1"><path d="M0 0h500v200H0z" fill="transparent"/><ellipse cx="122" cy="151.4" class="cls-8" rx="53.7" ry="18"/><ellipse cx="379.1" cy="151.4" class="cls-8" rx="53.7" ry="18"/></g><g id="Dino_1"><path d="M342.2 103.4A19.4 19.4 0 0 1 330 82c.6-4.3 2.4-8 5.6-11.1.2-.2.3-.6.3-.8 0-1 0-2 .2-3 1-8 4.8-14.5 10.7-19.8 3.9-3.4 8.4-5.7 13.3-7.1l.8-.5 2.8-3.2c2.2-2.3 4.8-4.2 7.8-5.5.8-.3 1.7-.6 2.5-.2a30 30 0 0 1 4.5 2.7c1.5 1.1 2.8 2.5 4.2 3.9l1.1-.7c4.4-2.6 9-4 14.3-3.4 1.8.2 3 1 3.7 2.7.9 2 1.4 4.2 1.5 6.4v3.9c1.8 0 3.2 0 4.7.2 2.6.3 5 1 7.5 2 1.8 1 2.6 2.4 2.6 4.4.1 3.7-.8 7.2-2.4 10.6l-.8 1.8.3.2c3.3 1.6 6 3.8 8 6.9 1.2 1.8 1.1 3.6-.1 5.4-1.5 2.1-3.3 4-5.4 5.4-1.4 1-2.8 1.7-4.2 2.6l.5.8c.5 1.2 1.2 2.4 1.5 3.7 1.1 3.9.1 6-3.5 7.6a22 22 0 0 1-10 1.8c-.5 0-.9 0-1 .5 1 .5 2 .8 3 1.4 2.3 1.2 3.2 2.9 2.8 5.5l-.8 3.9 3.1 1.6c2.2 1.3 3 3.3 2.5 5.7l-1.2 4c3.8 2.2 3.9 2.4 4.6 5.8 2.1-1 4-.6 5.5 1.2 1.3-1.7 2.8-2.7 5-2.3.7.1 1-.1 1.5-.6.7-.8 1.6-1.2 2.7-.9 1.1.4 1.6 1.2 1.9 2.3.3 1.7 0 3.5-.3 5.2a28.4 28.4 0 0 1-12.9 18 40 40 0 0 1-17.5 5.5c-.9 0-1.9-.1-2.7.5-5.1 3.6-10.8 5.1-17 4.7-3.5-.3-6.2-1.7-7.6-5.2 0-.2-.5-.5-.8-.5-3.3-.3-6.6-1-9.8-2-.3-.2-.7-.2-1 0-2.8 1-5.7 2-8.6 2.4-3.6.6-7.2.8-10.8 0-5.7-1.1-8.3-5-7.2-10.7.7-3.8 2.8-6.8 5.7-9.3l1.7-1.3-3.6-1.8c-.5-.3-1-.8-1.3-1.2-.3-.3-.5-.4-1-.4a8.6 8.6 0 0 1-8.3-4.2c-2-3.4-2-6.8 0-10.2.2-.6.2-1-.1-1.5l-3.4-5.6c-.7-1-.3-2 .8-2.4.2 0 .5-.3.5-.5.2-.7.7-1 1.4-1.2.3-1.2.5-1.4 1.9-1.6.5-1.5 1.3-1.8 2.6-1l12.3 7.5c.2.1.5.2.7.1 1.2-.6 2.5-1.2 3.6-1.9 1.3-.8 2-2 2.4-3.4a35 35 0 0 1-9-2.6ZM393.8 52c1.6-.2 2.5 1 3.4 1.9a50 50 0 0 1 4.8 4.8c1.3 1.5 2.3 3.2 3.4 4.8l.5.8.2-.1-1.9-3.8a38.3 38.3 0 0 0-34.8-17.9c-7.7.5-14.7 2.8-20.5 8.1a27.5 27.5 0 0 0-9 16c-.2 1.7-.2 3.5-.3 5.2 0 .5-.1.7-.5 1-3 2.4-4.6 5.6-5.4 9.3l-.3 3c0 2.1 1 3.6 2.7 4.7.4.3.8.4 1.1 0l1-1c1-.8 2.4-.7 3.4.3l1 1c1 .6 2 .7 3 0 1.7-1 2.4-1 4 .3 1.2 1 2.2 1 3.4.1 1.6-1.1 2.5-1.1 4.1 0 1.5 1.1 2.4 1.1 3.7-.1 1.1-1 2.4-1.7 4-1.2.6.1 1-.1 1.3-.7l1.2-2.4c.5-.8 1-1.2 1.9-1.1.7 0 1 .4 1.3 1 .3.6 0 1-.3 1.5-.3.6-.6 1.2-.7 1.8l-.7 3.3c-.1.7-.5 1.3-1.2 1.5-.8.2-1.3-.3-1.8-.8-1.4-1.6-2.6-1.5-3.8.4l-.7 1.6c-.3.7-.6 1.4-1.5 1.4-1 0-1.4-.5-1.7-1.3-.5-1-1.2-1.6-2.1-2.2-.7-.4-1.3-.4-1.8.2A9 9 0 0 0 353 95c-.4.6-.8 1.2-1.6 1.1-.8 0-1.2-.6-1.6-1.3-.3-.7-.7-1.3-1.3-1.7-.9-.8-1.7-.6-2.4.3l-.6 1.2c-.3.5-.7 1-1.4 1s-1.2-.5-1.5-1.1c-.4-1-.8-2-1.8-2.6-.8-.4-1-.4-1.6.3-1.3 1.7-1.8 1.8-3.5.5l-.8-.6c.6 1.4 1.3 2.4 2.2 3.3 2.8 2.8 6.2 4.7 10 5.7 2.9.7 5.9 1.2 8.8 1.7l.4.1-2.6 6.7 1-.3 13.2-3.7c2-.6 2.8 0 3.4 2l.3 1 .3.3c.5.5 1 .8 1.3 1.3l1.9 4 2.6-2.2c.4-.3.8-.7 1.3-.8.4-.2 1-.2 1.4 0 .9.4 1 1 .3 1.7l-4.5 3.8 1.3.4c1 .5 1 1.5 0 1.8-1 .5-2 .6-3 .8l-4.3 1.1c-1 .4-1.8 1-2.3 2-.2.5-.2.9.3 1.2a5 5 0 0 1 1.9 1.6c.3.6 1.2.9 2 1 2.4.7 4.9.5 7.3-.3a21 21 0 0 0 6.4-3.5c.6-.5 1-1.3 1.8-1.6.3 0 .4-.8.7-1.1 1-.9 1.4-2.1 2-3.2.7-1.1 1-2.4 1.5-3.6.2-.5.4-1 1-1.1.7 0 1.4.2 1.6.8.4.8.7 1.6.8 2.5.2 2.3-.6 4.4-1.3 6.6l-.4 2c-.5 2.3-1.4 4.5-2.7 6.5a1 1 0 0 0 0 .7c.2.8 0 1.5-.9 1.8a19 19 0 0 0-13.2 21c.5 2.8 1.4 3.6 4.6 4h2.8c.8.2 1-.3 1-1l.1-1.8c1.5-.5 3.1-.8 4.7-1.4 2.7-1 5.1-2.4 7.2-4.4 1-.8 1.9-1.6 2.7-2.5.4-.4.6-1 .9-1.5a18.3 18.3 0 0 0 2.6-14c-1-4-2.1-8.2-3.5-12.2-1-3.2-3-6-5-8.8a55.5 55.5 0 0 0-7.5-7.8c-.4-.5-1-.8-1.5-1.3l3.6-2.3c7.4-5 12.1-11.9 13.8-20.8l.3-3-.3-.5c-2.4-.5-3.3-2.3-3.6-4.5-.4-1.8.7-3.2 2.6-3.5.2-.7 0-1.2-.6-1.6a8.7 8.7 0 0 1-3.4-4c-1.2-3.1-2.8-6-4.6-8.6l.2-.7Zm-14.5 83.6-2 .5-14.6 3.5c-.3 0-.6.2-.8.4a6.8 6.8 0 0 1-7.2 1.2l-1-.5c-.7-1.1-2-1.4-3-2 .1 2.4 5.2 8 9 10 4 2 10.4 3.9 13.1 3.7-.2-6.5 2-12 6.5-16.8ZM354.9 122l6.5 12.2c.3.6.5.8 1.1.6l6-1.2v-.3l-.5-.4c-3-2.2-4.9-5-4.9-8.7 0-3 1.8-5.6 4.5-6.7l2.7-.9c.4 0 .8-.4 1.2.3h1.4l-1.3-2.5c-.1-.2-.5-.2-.7-.1l-7.8 2.2-9.6 2.8 1.4 2.7ZM338.7 148c-.1 2 .8 3.5 2.6 4.4 2 1 4.2 1 6.4 1 .6 0 1-.5 1.2-1.1.8-2.5.7-5 0-7.4-.4-1.5-1.1-2.9-1.7-4.3-.2-.6-.5-1-.3-1.7.2-.5-.3-1.2-.5-2-4 2.8-7.3 6-7.7 11.1Zm69.7-6.4c1.5 0 3 .3 4.6.2 4-.2 7.7-1.6 10.7-4.3 1.2-1 2.4-2.1 3.2-3.4.7-1.2.9-2.7 1.2-4.2-2.8 2-5.8 3.3-9.2 4-3.4.5-6.6 0-9.8-.9l-.7 8.6Zm2.3-76.8c.6-1.2 1.2-2 1.6-3 1.2-2.5 2-5.1 2.2-7.9 0-1.6-.2-2-1.7-2.5-2.8-1-5.8-1.6-8.8-1.3-.7 0-1.4.3-2 .5v.3c4 3.8 6.8 8.4 8.7 13.9Zm12.2 75.2a28.8 28.8 0 0 1-11.4 5c-1.3.3-2.7.4-4 .6-.3 0-.7.3-.8.5-1 2.3-2.3 4.4-4 6.3 8 .3 20.7-8 22.7-14.5l-2.5 2Zm-82.6-20.5.2-.2c-.4-.6-.8-1.4-1.4-1.8-3-1.5-6-2.9-9.1-4.2l1 1.6 3.6 5.7 5.2 8.8c.2.3.5.6.8.7l3.7 1.6c.2.1.5 0 .8 0 0-.2.1-.5 0-.8l-1.4-3.1-4.6-8.1-.5-1 1.7.8Zm59.3-75.4c0-2-.4-4-1-6-.3-.7-.7-1.1-1.5-1.2-2.7-.2-5.2.2-7.7 1.2-1.2.4-2.3 1.1-3.5 1.7l-.8.6c5.4 1.5 10 4.2 14.3 7.9l.2-4.2ZM419 76.4l-.8 1.2.2.1 1.6-2.2c.2-.2.1-.7 0-1-.9-1-1.6-2.2-2.6-3-1.2-1-2.7-1.7-4.1-2.5l-.5-.2h-1.1v1l1.2 4.3c.3 1.6.4 3.3.6 4.9v.8c2-.8 3.7-2 5.5-3.5Zm-61.8 56.9.1-.1c-1-2.2-2.2-4.3-3.4-6.6a6.1 6.1 0 0 1-5 2l2 3.7c.7 1.5 1.6 2 3.1 1.6.9-.1 1.8-.2 2.4-1.1l.8.5Zm-3.4-18.7c-.2-.7.3-.7.8-.9l6.6-2 7-1.9c.3 0 .8 0 .6-.6-.1-.6-.4-.7-1-.6l-5.2 1.3c-3.5 1-7 2.1-10.6 3.4-1.3.5-2.5 1.4-3.7 2.2-.8.5-1.3 1.4-1.4 2.4 2-1.9 4.5-2.3 6.9-3.3Zm-9.5 6.4 1.2 2.1 1.4 2.2c.3.3.8.7 1.1.7 1 0 2-.2 3-.4.6-.2 1-.8 1.5-1.2v-.5l-.6-1.2c-.8-.7-.8-1.8-1.5-2.7-1.8 1.4-3.7 2-6 1Zm34.5-81.8c-1.5-1.7-3-3.4-5.1-4.3a2 2 0 0 0-1.4 0 18 18 0 0 0-5.9 4.3c4.2-.7 8.3-.8 12.4 0Zm-30 78.8 20.5-6c.4 0 1.1-.1.6-.8-.1-.2-.6-.3-.9-.2-2 .5-4.2 1-6.3 1.7-3.8 1-7.6 2.2-11.4 3.4-1.1.3-2.2 1-3.2 1.6l-.4.4.1.2 1-.3Zm-3.4-2.3c-1-1.5-2.5-2.6-4.1-3.6l-8.7-5-.8-.3c-.3.1-.5.4-.6.7 0 .1.2.5.4.6l7 4c2.8 1.5 5.4 3.3 7.4 5.8l.3.2c.1-1-.4-1.7-.9-2.4Zm-.4 2c-1.3-1.6-3-2.8-4.8-3.7l-10-4.8c-1-.4-1-.4-1.4.8l3.8 1.7 9 4.5c1 .4 1.6 1.2 2.4 1.7l1.4.7.1-.2-.5-.7Zm-13.9 2.5c-.9 1.6-.7 4 .4 5.7 1 1.3 2.3 2.5 4.4 2.6l-4.8-8.3Zm71.6-10.8.6-2.6c.1-.9-.2-1.6-.9-2.2-1-.7-2-1.4-3.4-.9l-1.2.9c2.1 1.2 3.9 2.5 4.9 4.8Zm4.5 11c.5-1.3 1.5-2.7.6-4.2-.7-1.2-2.6-2-4-1.7 1.5 1.8 1.4 4.4 3.4 5.9Zm4.4-27.2v.6h.2l.3-1a9 9 0 0 0-2.2-5.4h-.2c0 .4-.2.8 0 1.1.5.9.3 1.7 0 2.5l-1 2.2-.2.6.1.2 3-.8Zm-2.6 34.5c.6.4.9 1.1 1.3 1.6l1 1.1c1-2.9-.9-5.4-3.4-4.9.2.8.2 1.7 1.1 2.3Zm-51 8.3a4.6 4.6 0 0 1-3.7 1.4c.5 1.7 3.2 2.2 4.8 1l-1-2.4Zm22.9-1.8 2.5-1.6c.7-.5 1.5-.8 2.3-1.1.8-.3 1-.7.8-1.5l-5.8 2.8.2 1.4Zm36-4c-.8 0-1.2.6-1.7 1.3h3c-.2-.6-.6-1.2-1.2-1.2Zm-12 5.1.1 2.8v-5.5 2.7Z"/><path d="M381.6 85.4h-41v-14h41z" class="cls-4"/><path d="M398.2 61.3c.7 1.6 1.9 3 3.4 4 .6.4.8 1 .6 1.6-1.9.3-3 1.7-2.6 3.5.3 2.2 1.2 4 3.6 4.5l.3.6-.3 3a31.4 31.4 0 0 1-13.8 20.7l-3.6 2.3 1.5 1.3a55 55 0 0 1 7.5 7.9c2 2.7 4 5.5 5 8.7 1.4 4 2.4 8.2 3.5 12.3a18.5 18.5 0 0 1-2.6 13.9c-.3.5-.5 1.1-.9 1.5-.8 1-1.8 1.7-2.7 2.6-2.1 2-4.5 3.4-7.2 4.4l-4.7 1.3v1.9c0 .6-.3 1-1.1 1h-2.8c-3.2-.5-4.2-1.3-4.6-4a19 19 0 0 1 13.2-21c.8-.3 1.1-1 .8-1.9v-.7c1.4-2 2.3-4.2 2.8-6.5l.4-2c.7-2.1 1.5-4.3 1.3-6.6-.1-.8-.4-1.7-.8-2.5-.2-.6-.9-.9-1.6-.8-.6.1-.8.6-1 1.1-.4 1.2-.8 2.5-1.5 3.6-.6 1.1-1 2.3-2 3.2-.3.3-.4 1-.7 1.2-.8.3-1.2 1-1.8 1.5a21 21 0 0 1-6.4 3.5c-2.4.8-4.9 1-7.3.4-.8-.2-1.6-.5-2-1a5 5 0 0 0-1.9-1.7c-.5-.3-.5-.6-.3-1 .5-1.1 1.3-1.8 2.3-2.2l4.3-1c1-.3 2-.4 3-.8s1-1.4 0-1.8c-.4-.3-1-.3-1.3-.5l4.5-3.8c.7-.6.6-1.3-.3-1.7-.4-.2-1-.2-1.4 0-.5.1-.9.5-1.3.9l-2.6 2-1.9-3.9c-.2-.5-.8-.8-1.3-1.2l-.3-.5-.3-1c-.6-2-1.3-2.4-3.4-1.9l-13.2 3.8-1 .3 2.6-6.8h-.4c-3-.6-5.9-1-8.8-1.8-3.8-1-7.2-2.9-10-5.7-.9-.9-1.6-1.9-2.2-3.2l.8.6c1.7 1.2 2.2 1.1 3.5-.6.6-.7.8-.7 1.6-.2 1 .6 1.4 1.5 1.8 2.5.3.7.8 1 1.5 1.1.7 0 1.1-.4 1.4-1l.6-1.2c.7-.9 1.5-1 2.4-.3.6.4 1 1 1.3 1.7.4.7.8 1.3 1.6 1.3.8.1 1.2-.4 1.6-1 .3-.7.7-1.3 1.2-1.8.5-.6 1.1-.6 1.8-.2a5 5 0 0 1 2 2.2c.4.8.9 1.4 1.8 1.3.9 0 1.2-.7 1.5-1.4l.7-1.6c1.2-1.9 2.4-2 3.9-.4.4.5 1 1 1.7.8.7-.2 1-.8 1.2-1.5l.7-3.3c.1-.6.4-1.2.7-1.7.3-.5.6-1 .3-1.6-.2-.6-.7-1-1.3-1-.8 0-1.4.3-1.9 1.2l-1.2 2.4c-.3.5-.7.8-1.4.6-1.5-.5-2.8.1-3.9 1.2-1.3 1.3-2.2 1.2-3.7.1-1.6-1.1-2.5-1.1-4 0-1.3 1-2.3 1-3.5 0-1.6-1.3-2.3-1.4-4-.3-1 .6-2 .5-3 0l-1-1.1c-1-1-2.3-1-3.4-.2l-1 .9c-.3.4-.7.3-1.1 0-1.6-1-2.7-2.5-2.7-4.6l.3-3c.8-3.8 2.4-7 5.4-9.3.3-.3.5-.6.5-1 0-1.8 0-3.6.4-5.3 1-6.4 4.2-11.6 9-16a32.2 32.2 0 0 1 20.4-8.1 38.3 38.3 0 0 1 34.8 17.9l2 3.8-.3.1-.5-.8c-1.1-1.6-2.1-3.3-3.4-4.8-1.5-1.7-3.1-3.3-4.8-4.8-1-.9-1.8-2-3.4-1.8l-.2.7c1.8 2.5 3.4 5.4 4.7 8.5Zm-26.4 21.2c1.6 1.5 3.9 1 5-.8 1.3-2.1.9-6-.8-7.8-1.7-1.9-4.5-1.3-5.5 1.2-.3.8-.4 1.7-.5 2.2.2 2.1.4 3.9 1.8 5.2ZM382 52.7c-.3 1 .2 2 1.2 2.5a5 5 0 0 0 2 .5c1.6 0 2.4-1.4 1.8-2.9a3 3 0 0 0-2.7-1.6c-1.2 0-2 .6-2.3 1.5Zm11.3 7.2c0-1.5-1.3-2.6-3-2.6-1.3 0-2.3.9-2.3 2 0 1.3 1.5 2.5 3.1 2.5 1.3 0 2.2-.8 2.2-1.9ZM349 80.6c0 .6.1 1 .6 1.2.6.3 1 0 1.3-.4.7-.9 1.1-.8 1.6.2.3.6.7.9 1.3.7.7-.2.8-.7.7-1.4a3 3 0 0 0-2.9-2.5c-1.4 0-2.5 1-2.6 2.2Zm-7.8.7c.5.2 1 0 1.2-.4l.3-.5c.4-.4.7-.4 1 0 .5.6.9 1 1.6.6.5-.4.6-1 .2-1.8a2.6 2.6 0 0 0-3-1.4c-1.1.2-2 1.3-2 2.7l.7.8Zm57.3-16c0-1-.9-2.1-2-2.1-1 0-1.9.6-2 1.6 0 1 1 2 2.3 2.1 1 0 1.7-.6 1.8-1.6ZM396.8 78c0 1 .9 1.8 2 1.9 1 0 1.7-.7 1.7-1.7s-.9-1.8-2-1.8c-.9 0-1.7.7-1.7 1.5ZM379 49.4c.6 0 1.2-.6 1.2-1.2 0-.8-.8-1.4-1.6-1.4s-1.4.6-1.4 1.2c0 .8.9 1.4 1.8 1.4Zm22.5 83.7c.7 0 1.3-.5 1.3-1.2 0-.8-.5-1.4-1.2-1.4-.8 0-1.4.6-1.4 1.3 0 .7.6 1.3 1.3 1.3ZM387 48.6c0-.7-.7-1.3-1.6-1.3-.6 0-1.1.5-1.1 1.1 0 .7.6 1.2 1.4 1.2.8 0 1.3-.3 1.3-1Zm7.8 79c0 .7.5 1.2 1.1 1.2.7 0 1.2-.5 1.2-1.1 0-.8-.5-1.3-1.2-1.2-.7 0-1.2.4-1.2 1.1Zm.5-59.2c-.5 0-1 .3-.8 1 0 .4.4.8.9.7.3 0 .6-.4 1-.7V69c-.4-.2-.8-.5-1.1-.5ZM376.6 53c.3 0 .8-.5.7-.7 0-.3-.5-.7-.8-.8-.3 0-.6.4-1 .6l.1.4c.3.2.7.6 1 .5Zm21.5 66c0-.1-.3-.6-.5-.5a1 1 0 0 0-.6.5l.5.9c.3-.4.6-.6.7-.9Zm.4-45.7c.2 0 .3-.3.5-.5l-.5-.4c-.2 0-.4.3-.8.5l.8.4Zm1.3 50.8-.4-.3-.5.4.5.6.5-.7Zm1.3-41.3c0-.2-.3-.3-.4-.4-.1 0-.4.2-.4.4l.4.5.4-.5Zm-3.9 39.4-.3-.4c0 .2-.3.3-.3.5l.3.5.3-.6Zm-.2 8.4s.4-.3.3-.4c0-.2-.2-.3-.4-.4l-.5.3c.2.2.4.5.6.5Z" class="cls-4"/><path d="M372.8 152.4c-.2-6.5 2-12 6.5-16.8l-2 .5-14.6 3.5c-.3 0-.6.2-.8.4a6.8 6.8 0 0 1-7.2 1.2c-.3-.1-.7-.3-1-.6-.7-1-2-1.4-3-1.9.1 2.4 5.2 8 9 10 4 2 10.4 3.9 13.1 3.6ZM346.4 137c-4 2.8-7.3 6-7.7 11-.1 2.1.8 3.6 2.6 4.4 2 1 4.2 1 6.4 1 .6 0 1-.5 1.2-1 .8-2.5.7-5 0-7.4-.4-1.5-1.1-3-1.7-4.4-.2-.5-.5-1-.3-1.7.2-.4-.3-1.1-.5-1.9ZM409.1 133.1l-.7 8.6c1.5 0 3 .3 4.6.2 4-.2 7.6-1.6 10.7-4.3 1.2-1 2.4-2.1 3.2-3.5.7-1.1.9-2.6 1.2-4-2.8 1.9-5.9 3.2-9.2 3.8-3.4.6-6.7 0-9.8-.8Z" class="cls-4"/><path d="m425.4 138-2.5 2a28.8 28.8 0 0 1-11.4 5c-1.4.4-2.7.5-4 .7-.3 0-.7.3-.8.5-1 2.3-2.3 4.4-4 6.3 8 .2 20.7-8 22.7-14.5Z" class="cls-10"/><path d="M346.9 117.9c2-1.9 4.5-2.3 6.9-3.4-.2-.6.4-.7.8-.8l6.6-2 7-1.9c.3 0 .8 0 .6-.6 0-.6-.4-.7-1-.6l-5.2 1.3c-3.5 1-7 2.1-10.6 3.4-1.3.5-2.5 1.3-3.7 2.2-.8.5-1.3 1.3-1.4 2.4Z" class="cls-9"/><path d="m347.8 118.2 1-.2 20.5-6c.4-.1 1.1-.2.6-.9 0-.1-.6-.2-.9-.1l-6.3 1.6-11.4 3.4c-1.1.4-2.2 1.1-3.2 1.7-.2 0-.3.3-.4.4l.1.1ZM346.3 118.1c.1-1-.4-1.7-.9-2.4-1-1.5-2.5-2.7-4-3.6l-8.7-5c-.3-.2-.6-.4-.9-.3-.2 0-.5.4-.6.7 0 .1.2.5.4.6l7.1 4c2.8 1.5 5.4 3.3 7.3 5.8l.3.2Z" class="cls-9"/><path d="m345.5 118.4-.5-.7c-1.3-1.7-3-2.8-4.8-3.7l-10-4.8c-1-.4-1-.4-1.4.7l3.8 1.8 9 4.5c1 .4 1.6 1.1 2.4 1.7l1.4.7.1-.2Z" class="cls-9"/><path d="m336 128.4-4.9-8.2c-.8 1.6-.7 4 .5 5.7 1 1.3 2.2 2.5 4.3 2.5Z" class="cls-1"/><path d="m353.5 119.3 1.4 2.7 6.5 12.2c.3.5.5.8 1.1.6l6-1.3v-.2l-.5-.5c-3-2.1-4.9-4.9-4.9-8.6 0-3 1.7-5.6 4.5-6.7l2.7-.9c.4 0 .8-.4 1.2.2.1.2.8.1 1.4.1l-1.3-2.6h-.7l-7.8 2.2-9.6 2.8ZM338.6 118.9l1.7.7.2-.2c-.4-.6-.8-1.5-1.4-1.8-3-1.5-6-3-9.1-4.3l1 1.7 3.6 5.6 5.2 9a84.5 84.5 0 0 0 4.5 2.3h.8v-1l-1.4-3-4.6-8.2-.5-.8ZM356.4 132.7l.8.5h.1c-1-2.2-2.2-4.4-3.4-6.6a6.1 6.1 0 0 1-5 2c.7 1.4 1.5 2.5 2 3.7.7 1.4 1.6 1.9 3.1 1.6.9-.2 1.8-.2 2.4-1.2ZM350.4 120c-1.8 1.4-3.7 1.9-6 1l1.1 2.1 1.5 2.2c.2.3.7.7 1 .6 1 0 2 0 3-.4.6-.1 1-.7 1.5-1.1v-.6c-.2-.4-.3-.8-.6-1-.8-.8-.8-2-1.5-2.8ZM359.1 138.3l-1-2.3a4.6 4.6 0 0 1-3.8 1.3c.5 1.7 3.3 2.3 4.8 1Z" class="cls-5"/><path d="M380.8 132.8v1.4l2.6-1.7c.7-.4 1.5-.8 2.3-1 .8-.3 1-.8.8-1.5l-5.7 2.7Z" class="cls-4"/><path d="M402 51c4 3.8 6.8 8.4 8.6 13.8.7-1 1.2-2 1.7-3 1.2-2.4 2-5 2.1-7.8.1-1.6 0-2-1.6-2.5-2.8-1-5.8-1.6-8.8-1.3-.7 0-1.4.3-2 .5v.3ZM399.4 48.4l.2-4.2c0-2-.4-4-1-6-.3-.7-.7-1.1-1.5-1.2-2.7-.2-5.2.2-7.7 1.2-1.2.4-2.3 1.1-3.5 1.7l-.8.6c5.4 1.5 10 4.2 14.3 7.9ZM413.6 79.8c2-.8 3.6-2 5.4-3.5l-.8 1.3.2.1 1.6-2.2c.2-.2 0-.7 0-1-.9-1-1.6-2.2-2.6-3-1.2-1-2.7-1.7-4.1-2.6l-.5-.1h-1.1v1l1.2 4.3c.3 1.6.4 3.3.6 4.9v.7ZM366.4 39.1c4.2-.6 8.3-.7 12.4 0-1.5-1.6-3-3.3-5.1-4.2a2 2 0 0 0-1.4 0 18 18 0 0 0-5.9 4.2ZM397.8 104.5c2.1 1.2 4 2.5 4.9 5l.6-2.7c.1-.9-.2-1.6-.9-2.2-1-.7-2-1.4-3.4-.9l-1.2.9ZM403.7 114.5c1.6 1.8 1.6 4.4 3.5 5.9.5-1.4 1.5-2.7.6-4.3-.7-1.1-2.6-1.9-4-1.6ZM408.7 94l2.9-.8v.6h.2l.3-1a9 9 0 0 0-2.1-5.4h-.3c0 .4-.2.8 0 1.1.5.9.3 1.7 0 2.5l-1 2.2-.2.6.2.2ZM408 125.5c.2.8.2 1.7 1 2.2.6.4.9 1 1.3 1.6l1 1c1-2.8-.9-5.3-3.4-4.8ZM418.3 131.5c-.3-.6-.7-1.2-1.3-1.3-.9 0-1.3.6-1.8 1.3h3Z" class="cls-10"/><path d="M358.3 68.8c.2 3.4.5 6.1 2.7 8.1 2.6 2.4 6.2 1.8 8-1.2 2-3.4 1.4-9.4-1.3-12.3-2.7-3-7-2-8.6 1.9-.5 1.2-.7 2.7-.8 3.5ZM384.4 51.2c-1.2 0-2 .6-2.3 1.5-.3 1 .2 2 1.2 2.5a5 5 0 0 0 2 .5c1.6 0 2.4-1.4 1.8-2.9a3 3 0 0 0-2.7-1.6ZM391.2 61.8c1.3 0 2.2-.8 2.2-2 0-1.4-1.3-2.5-3-2.5-1.3 0-2.3.9-2.3 2 0 1.3 1.6 2.5 3.1 2.5ZM396.9 67c1 0 1.7-.7 1.8-1.7 0-1.1-1-2.1-2.1-2.2-1 0-1.8.7-1.9 1.6 0 1.2 1 2.2 2.2 2.2ZM398.5 76.4c-1 0-1.7.6-1.8 1.5 0 1 1 2 2 2s1.7-.8 1.7-1.7c0-1-.9-1.8-2-1.8ZM377.1 48c0 .8.9 1.4 1.8 1.4.7 0 1.2-.6 1.2-1.3 0-.7-.8-1.3-1.6-1.3-.7 0-1.4.6-1.4 1.2ZM400.1 131.8c0 .7.7 1.3 1.3 1.3.7 0 1.3-.5 1.3-1.2 0-.8-.5-1.4-1.2-1.4-.8 0-1.4.6-1.4 1.3ZM385.7 49.6c.8 0 1.2-.3 1.2-1s-.7-1.4-1.5-1.4c-.7 0-1.2.6-1.2 1.2 0 .7.6 1.2 1.5 1.2ZM395.9 126.5c-.7 0-1.2.4-1.2 1.1 0 .7.5 1.2 1.1 1.2.7 0 1.2-.5 1.2-1.2s-.4-1.2-1.2-1.1ZM396.3 69c-.4-.2-.7-.5-1.1-.6-.5 0-.9.3-.8 1 0 .4.4.8 1 .7.3 0 .6-.5.9-.7V69ZM375.6 52.5c.4.2.7.5 1 .5.3 0 .8-.5.8-.7-.1-.3-.5-.8-.8-.8-.3 0-.7.4-1 .6v.4ZM397.5 119.8c.3-.3.6-.5.7-.8 0-.2-.4-.6-.5-.5a1 1 0 0 0-.7.5l.5.9ZM397.7 73l.8.3c.2 0 .4-.3.5-.5-.1-.1-.3-.4-.5-.4s-.4.2-.7.5ZM399.4 124.8l.5-.7-.4-.3c-.2 0-.4.3-.6.4l.5.6ZM400.8 83.3l.3-.5c0-.2-.2-.4-.4-.4l-.4.3c0 .2.2.3.5.6ZM396.9 122.8l.4-.6-.3-.4c-.2.2-.4.3-.4.5l.3.5ZM396.4 130c.3.3.4.5.6.5l.4-.3-.4-.4-.6.3Z"/></g><g id="Dino_2"><path d="M150.8 105.9c.4 1.5 1 2.7 2.3 3.4l3.6 2 .8-.1 12.2-7.6c1.4-.8 2.2-.5 2.7 1 1.3.3 1.5.5 1.8 1.7.8 0 1.2.4 1.4 1.2 0 .2.3.4.5.4 1.2.5 1.5 1.3.9 2.4l-3.4 5.6c-.3.5-.4 1 0 1.5 1.8 3.4 1.9 6.9-.2 10.2-1.9 3-4.8 4.4-8.3 4.2-.5 0-.7 0-1 .4-.3.5-.7 1-1.3 1.2-1.1.7-2.3 1.2-3.5 1.8l1.7 1.4c2.8 2.5 5 5.4 5.6 9.3 1.1 5.6-1.5 9.5-7.1 10.7-3.6.7-7.2.5-10.8 0-3-.6-5.8-1.4-8.6-2.5-.3-.2-.7-.2-1 0a40.3 40.3 0 0 1-9.9 2c-.3 0-.7.3-.8.6-1.3 3.4-4 4.9-7.5 5.1-6.2.5-12-1-17-4.7-.9-.6-1.8-.4-2.8-.5a40.4 40.4 0 0 1-17.5-5.6 28.4 28.4 0 0 1-12.8-17.9c-.4-1.7-.6-3.4-.3-5.2.2-1 .7-1.9 1.8-2.2 1.2-.4 2 0 2.8.9.4.4.8.7 1.5.5 2.1-.4 3.7.6 5 2.3 1.5-1.8 3.3-2.2 5.5-1.2.7-3.4.8-3.5 4.6-5.9-.4-1.3-1-2.5-1.2-3.8-.6-2.5.2-4.5 2.4-5.7l3.2-1.7-.8-3.8c-.4-2.7.4-4.3 2.8-5.6l3-1.4c-.2-.4-.6-.5-1-.5-3.5.1-6.9-.3-10-1.8-3.7-1.6-4.7-3.7-3.6-7.5.4-1.3 1-2.5 1.6-3.8l.5-.8c-1.5-.9-3-1.6-4.2-2.6-2.2-1.4-4-3.3-5.4-5.4-1.3-1.8-1.3-3.5-.1-5.4 2-3 4.7-5.3 8-6.9l.3-.1-.9-1.9A23.5 23.5 0 0 1 83.9 53c0-2 .8-3.4 2.7-4.3 2.4-1.1 4.9-1.7 7.4-2 1.5-.2 3-.2 4.7-.3v-3.8a20 20 0 0 1 1.5-6.5c.8-1.6 2-2.5 3.8-2.7a23 23 0 0 1 14.3 3.4l1 .7c1.5-1.3 2.8-2.7 4.3-3.9 1.3-1 2.9-1.8 4.4-2.6.8-.4 1.8-.2 2.6.2a24 24 0 0 1 7.8 5.4c1 1 1.8 2.2 2.7 3.2l.8.5c5 1.5 9.5 3.8 13.3 7.2 6 5.3 9.7 11.8 10.8 19.8.1 1 0 2 .2 2.9 0 .3 0 .6.3.8 3.2 3 5 6.8 5.6 11.1.7 4.8 0 9.3-2.6 13.4a20.5 20.5 0 0 1-9.7 7.9c-2.8 1.3-5.9 2-9 2.5Zm-42.3-53.1a42.2 42.2 0 0 0-4.7 8.5c-.7 1.7-1.8 3-3.3 4-.7.5-.8 1-.7 1.6 1.9.3 3 1.7 2.7 3.6-.4 2.1-1.3 3.9-3.7 4.4l-.3.6.3 3a31.4 31.4 0 0 0 13.8 20.7l3.6 2.3-1.5 1.3a55 55 0 0 0-7.5 7.9c-2 2.7-4 5.5-5 8.7-1.4 4-2.4 8.2-3.5 12.3a18.5 18.5 0 0 0 2.6 13.9c.4.5.5 1.1.9 1.5.8 1 1.8 1.7 2.7 2.6 2.1 2 4.5 3.4 7.3 4.4l4.6 1.3v1.9c0 .6.4 1 1.2 1h2.7c3.3-.4 4.2-1.2 4.6-4 .3-1.7.3-3.5.2-5.2a19 19 0 0 0-13.4-15.9c-.8-.2-1.1-1-.8-1.8v-.7c-1.4-2-2.3-4.2-2.8-6.5l-.4-2c-.7-2.1-1.5-4.3-1.2-6.6 0-.8.3-1.7.7-2.5.3-.6.9-.9 1.6-.8.6.1.8.6 1 1.1.5 1.2.8 2.5 1.5 3.6.6 1.1 1 2.4 2 3.2.4.3.4 1 .7 1.2.8.3 1.3 1 1.9 1.5 2 1.5 4 2.7 6.3 3.5 2.4.8 4.9 1 7.4.4.7-.2 1.6-.5 2-1a5 5 0 0 1 1.8-1.7c.5-.3.5-.6.3-1-.5-1-1.3-1.8-2.3-2.1-1.4-.5-2.8-.8-4.2-1.1-1-.3-2.2-.4-3.1-.8-1-.4-1-1.4 0-1.8l1.3-.4-4.4-3.9c-.8-.6-.7-1.3.2-1.7.4-.2 1-.2 1.4 0 .5.2 1 .5 1.3.9l2.6 2 1.9-3.8c.3-.6.8-.9 1.3-1.3.1-.2.3-.3.3-.5l.3-1c.6-2 1.3-2.4 3.4-1.9l13.2 3.8 1 .3-2.6-6.8h.4c3-.6 6-1 8.8-1.8 3.8-1 7.2-2.9 10-5.7.9-.9 1.7-1.9 2.2-3.2l-.8.6c-1.7 1.2-2.2 1.1-3.5-.5-.6-.8-.8-.8-1.6-.3-1 .6-1.4 1.5-1.8 2.5-.2.7-.7 1-1.5 1.1-.7 0-1-.4-1.4-1l-.6-1.1c-.7-1-1.5-1.1-2.4-.4-.6.4-1 1-1.3 1.7-.4.7-.8 1.3-1.6 1.4-.8 0-1.2-.5-1.5-1.2l-1.3-1.7c-.5-.6-1.1-.6-1.8-.2a5 5 0 0 0-2 2.3c-.3.7-.9 1.3-1.8 1.2-.9 0-1.2-.7-1.5-1.4l-.7-1.6c-1.1-1.9-2.3-2-3.8-.4-.5.5-1 1-1.7.8-.8-.2-1.1-.8-1.3-1.5l-.6-3.3c-.2-.6-.4-1.2-.8-1.7-.3-.5-.6-1-.3-1.6.2-.6.7-1 1.3-1 .9 0 1.5.3 1.9 1.2l1.2 2.4c.3.5.8.8 1.4.6 1.6-.5 2.8.1 4 1.2 1.2 1.3 2.1 1.2 3.6.1 1.6-1.1 2.5-1.1 4 0 1.3 1 2.3 1 3.5 0 1.6-1.3 2.3-1.4 4-.3 1 .6 2 .5 3 0l1-1.1c1-1 2.3-1 3.4-.2l1 .9c.4.4.7.3 1.1 0 1.7-1 2.8-2.5 2.7-4.6l-.3-3c-.7-3.8-2.3-7-5.3-9.3-.4-.3-.5-.6-.6-1 0-1.8 0-3.6-.3-5.3-1.1-6.4-4.3-11.6-9-16a32.2 32.2 0 0 0-20.5-8 38.3 38.3 0 0 0-34.8 17.8l-2 3.8.3.1.5-.8c1.1-1.6 2.2-3.3 3.5-4.8 1.4-1.7 3-3.3 4.7-4.8 1-.9 1.8-2 3.4-1.8l.3.7Zm20.8 99.6c2.6.2 9.1-1.7 13-3.7 3.8-2 9-7.6 9.1-10-1.1.6-2.4.9-3.1 2l-1 .6c-2.3 1-5.3.5-7.2-1.3l-.7-.4-14.6-3.5-2-.5a22.8 22.8 0 0 1 6.5 16.8Zm19.2-33-9.6-3a633.3 633.3 0 0 0-8.5-2l-1.3 2.6 1.4-.1c.4-.7.8-.4 1.2-.3l2.7 1a7 7 0 0 1 4.5 6.6c0 3.8-2 6.5-4.9 8.7l-.5.4v.3l6 1.2c.6.2.8 0 1.1-.6l6.5-12.2 1.4-2.7Zm7 17.6c-.1.8-.6 1.5-.4 2 .3.7 0 1.1-.3 1.6l-1.7 4.4c-.7 2.4-.8 4.9 0 7.3.3.6.6 1.1 1.3 1.1 2.1 0 4.3 0 6.3-1a4.2 4.2 0 0 0 2.6-4.3c-.4-5.2-3.6-8.3-7.7-11ZM93 133.1a22 22 0 0 1-9.8.8c-3.3-.6-6.3-2-9.2-3.9.3 1.4.5 3 1.2 4.1.8 1.4 2 2.5 3.2 3.5 3 2.7 6.7 4 10.8 4.3l4.5-.2-.7-8.6Zm7.2-82.1v-.3c-.7-.2-1.4-.5-2-.5-3.1-.3-6 .2-8.9 1.3-1.5.6-1.7.9-1.6 2.5.1 2.8 1 5.4 2.1 7.8l1.7 3c1.8-5.4 4.7-10 8.7-13.8Zm-23.4 87c1.9 6.6 14.6 14.8 22.6 14.5-1.6-2-3-4-4-6.3 0-.2-.4-.4-.7-.5-1.3-.2-2.7-.3-4-.6-4.2-.9-8-2.5-11.5-5l-2.4-2.1Zm86.7-19.1-.5.9-4.6 8-1.4 3.2v.9h.8l3.7-1.7c.3-.1.6-.4.8-.7l5.2-8.8 3.6-5.7 1-1.6c-3.1 1.3-6.2 2.7-9.1 4.3-.6.3-1 1.1-1.4 1.7l.2.2 1.7-.7Zm-60.8-70.5c4.4-3.7 9-6.4 14.3-7.9-.3-.3-.5-.5-.8-.6-1.1-.6-2.3-1.3-3.5-1.7-2.5-1-5-1.4-7.7-1.2-.8 0-1.2.5-1.5 1.2-.6 2-1 4-1 6l.2 4.2ZM88.4 79.8V79l.7-4.9 1.2-4.3v-1h-1a1 1 0 0 0-.6.1c-1.4.9-2.9 1.6-4.1 2.6-1 .8-1.7 2-2.5 3-.2.3-.3.8-.1 1l1.6 2.2.2-.1-.8-1.2a22 22 0 0 0 5.4 3.4Zm57.2 53c.6 1 1.5 1 2.4 1.1 1.5.3 2.5-.2 3.1-1.6l2.1-3.6c-2 0-3.8-.6-5.1-2.1l-3.4 6.6h.1l.8-.5Zm9.5-15c0-1-.6-1.8-1.4-2.4-1.2-.8-2.4-1.7-3.7-2.1-3.5-1.3-7-2.4-10.6-3.4-1.7-.6-3.5-.9-5.2-1.3-.5-.1-.9 0-1 .6-.2.6.4.5.7.6l7 1.9 6.6 2c.4.1.9.2.7.8 2.4 1 5 1.5 7 3.4Zm-3.5 2.2c-.7.9-.7 2-1.4 2.7l-.7 1.1v.6c.5.4 1 1 1.5 1.1 1 .3 2 .4 3 .4.3 0 .8-.3 1-.6.6-.7 1-1.5 1.5-2.2l1.2-2c-2.4.8-4.3.3-6-1.1Zm-16-80.9a18 18 0 0 0-5.9-4.2 2 2 0 0 0-1.4 0c-2 .9-3.6 2.6-5.1 4.2 4.1-.7 8.2-.6 12.4 0Zm18.6 79.1.1-.1-.3-.4c-1.1-.6-2.1-1.3-3.3-1.7a414 414 0 0 0-11.4-3.4L133 111c-.3 0-.8 0-.9.2-.5.7.2.8.6.9l20.5 6 1 .2Zm1.5-.1.3-.2c2-2.6 4.6-4.3 7.3-5.9l7.1-4c.2 0 .5-.4.4-.5 0-.3-.3-.6-.6-.7-.2 0-.6.1-.8.3-3 1.6-5.8 3.2-8.7 5-1.6 1-3 2-4.1 3.6-.5.7-1 1.4-.9 2.4Zm.8.3.1.1 1.4-.6 2.3-1.8 9.1-4.4 3.8-1.8c-.4-1.1-.4-1.1-1.3-.7-3.4 1.6-6.8 3.1-10 4.8-2 .9-3.6 2-4.9 3.6l-.5.8Zm9.6 10c2.1 0 3.4-1.2 4.4-2.6a5.7 5.7 0 0 0 .4-5.6l-4.8 8.2Zm-61.9-23.9c-.4-.3-.8-.7-1.2-.8-1.3-.5-2.4.1-3.4.9-.7.5-1 1.3-.9 2.2l.6 2.6c1-2.4 2.8-3.7 5-4.9Zm-5.9 10c-1.5-.3-3.4.5-4 1.6-1 1.6 0 3 .5 4.2 2-1.4 1.9-4 3.5-5.8Zm-5-20.5.2-.2-.2-.6-1-2.2c-.3-.8-.5-1.6 0-2.5.2-.3 0-.8 0-1.1H92a9.1 9.1 0 0 0-2.1 5.3c0 .4.2.7.3 1h.2v-.6l3 1Zm.8 31.5c-2.5-.6-4.3 2-3.4 4.9l1-1.1c.4-.6.7-1.2 1.3-1.6.9-.6.9-1.4 1.1-2.2Zm48.8 12.8c1.6 1.3 4.3.7 4.9-1-1.5.2-2.8-.3-3.9-1.3l-1 2.3Zm-21.6-5.6-5.8-2.7c-.2.7 0 1.2.8 1.5.8.2 1.6.6 2.3 1 1 .5 1.7 1.1 2.6 1.7v-1.5Zm-37.5-1.2h3c-.5-.7-.9-1.4-1.7-1.3-.7 0-1 .6-1.3 1.3Zm13.2 1v5.5-5.5Z"/><path d="M120.5 71.4h40.9v14h-40.9z" class="cls-2"/><path d="m108.5 52.8-.3-.8c-1.6-.2-2.4 1-3.4 1.8a50 50 0 0 0-4.7 4.9c-1.3 1.5-2.3 3.2-3.5 4.8l-.5.8-.2-.1a34.8 34.8 0 0 1 17.3-17.9c6.2-3 12.6-4.3 19.4-3.8 7.7.4 14.7 2.8 20.5 8 4.8 4.4 7.9 9.7 9 16.1.3 1.7.3 3.5.3 5.2 0 .5.2.7.6 1 3 2.4 4.6 5.6 5.3 9.3l.3 3c0 2.1-1 3.6-2.7 4.7-.4.3-.7.4-1.1 0l-1-1c-1-.8-2.3-.7-3.3.2-.4.4-.7.8-1.2 1-.9.7-1.8.8-2.8.2-1.8-1.2-2.5-1-4.1.2-1.2 1-2.2 1-3.4.1-1.6-1.2-2.5-1.2-4 0-1.6 1.1-2.5 1.1-3.8-.1-1.1-1.1-2.3-1.7-4-1.2-.5.1-1-.2-1.3-.7l-1.2-2.4c-.4-.8-1-1.2-1.9-1.1-.6 0-1 .4-1.3 1-.3.6 0 1 .3 1.5.4.5.6 1.1.8 1.7l.6 3.4c.2.7.5 1.3 1.3 1.5.7.2 1.2-.3 1.7-.8 1.5-1.6 2.7-1.5 3.8.3l.7 1.6c.3.8.6 1.5 1.5 1.5 1 0 1.5-.5 1.8-1.3.4-1 1.1-1.6 2-2.2.7-.4 1.3-.4 1.8.1a9 9 0 0 1 1.3 1.8c.3.6.7 1.2 1.5 1.1.8 0 1.2-.6 1.6-1.3.3-.7.8-1.3 1.3-1.8.9-.7 1.7-.5 2.4.4l.6 1.2c.3.5.7 1 1.4 1 .8 0 1.3-.5 1.5-1.1.4-1 .8-2 1.8-2.6.8-.4 1-.4 1.6.3 1.3 1.7 1.8 1.8 3.5.5l.8-.6c-.5 1.4-1.3 2.4-2.2 3.3a21.6 21.6 0 0 1-10 5.7c-2.9.7-5.9 1.2-8.8 1.7l-.4.1 2.6 6.7-1-.3-13.2-3.7c-2-.6-2.8-.1-3.4 2l-.3 1-.3.3c-.4.5-1 .8-1.3 1.3-.7 1.2-1.2 2.6-1.9 4l-2.6-2.2c-.4-.3-.8-.7-1.3-.9h-1.4c-.9.5-1 1.1-.2 1.8l4.4 3.8-1.3.4c-1 .5-1 1.4 0 1.8 1 .4 2 .6 3 .8l4.3 1.1c1 .4 1.8 1 2.3 2 .2.5.2.9-.3 1.2a5 5 0 0 0-1.9 1.6c-.3.6-1.2.9-2 1-2.4.7-4.9.5-7.3-.3a21 21 0 0 1-6.3-3.5c-.6-.5-1-1.3-1.9-1.6-.3 0-.3-.8-.7-1.1-1-.9-1.4-2.1-2-3.2-.6-1.1-1-2.4-1.5-3.6-.2-.6-.4-1-1-1.1-.7-.1-1.3.2-1.6.8-.4.8-.6 1.6-.7 2.5-.3 2.3.5 4.4 1.2 6.6l.4 2c.5 2.3 1.4 4.5 2.8 6.4 0 .2.1.6 0 .8-.3.8 0 1.5.8 1.8a19 19 0 0 1 13.2 21c-.4 2.8-1.4 3.6-4.6 4H118c-.8.1-1.1-.3-1.2-1v-1.9c-1.5-.4-3-.7-4.6-1.3-2.8-1-5.2-2.4-7.3-4.4-.9-.8-1.9-1.6-2.7-2.5-.4-.4-.5-1-.9-1.5a18.3 18.3 0 0 1-2.6-14c1.1-4 2.2-8.2 3.5-12.2 1-3.2 3-6 5-8.8 2.2-2.9 4.8-5.4 7.5-7.9l1.6-1.2-3.7-2.3A31.4 31.4 0 0 1 99 78.4l-.4-3c0-.2.2-.5.3-.5 2.5-.5 3.3-2.3 3.7-4.5.3-1.9-.8-3.3-2.7-3.5-.1-.7 0-1.2.7-1.6 1.5-1 2.6-2.4 3.3-4 1.2-3.1 2.8-6 4.7-8.6ZM132 77.3c-.1-.5-.2-1.4-.5-2.2-1-2.5-3.8-3-5.5-1.2a7.5 7.5 0 0 0-.8 7.8 3.2 3.2 0 0 0 5 .8c1.5-1.3 1.7-3 1.8-5.2Zm-14.4-26a3 3 0 0 0-2.6 1.5c-.7 1.5.1 3 1.7 3a5 5 0 0 0 2-.6c1-.4 1.5-1.5 1.2-2.5-.2-1-1-1.5-2.3-1.5Zm-6.8 10.5c1.6 0 3-1.2 3.1-2.5 0-1.1-1-2-2.3-2-1.6 0-3 1.1-3 2.6 0 1.1 1 1.9 2.2 2Zm39.5 16.6a3 3 0 0 0-3 2.5c0 .6.2 1.2.8 1.4.6.2 1-.1 1.3-.7.5-1 1-1 1.6-.2.3.4.7.7 1.3.4.5-.2.7-.6.6-1.2 0-1.3-1.2-2.2-2.7-2.2Zm11.1 2.1c0-1.4-.9-2.5-2-2.7-1.2-.3-2.4.2-3 1.4-.4.7-.3 1.4.2 1.8.7.4 1.1 0 1.5-.6.4-.4.7-.4 1.1 0l.3.5c.3.5.8.6 1.2.4l.7-.8ZM105.1 67c1.3 0 2.3-1 2.2-2.2 0-1-.9-1.6-1.9-1.6-1 0-2 1.1-2 2.2 0 1 .8 1.7 1.7 1.6Zm-1.6 9.5c-1 0-1.8.7-1.8 1.8 0 1 .7 1.6 1.7 1.6s2-.9 1.9-1.9c0-.9-.8-1.5-1.8-1.5ZM125 48c0-.6-.6-1.2-1.4-1.2-.8 0-1.5.6-1.6 1.3 0 .7.6 1.2 1.2 1.3 1 0 1.8-.7 1.8-1.4Zm-23 83.8c0-.7-.6-1.3-1.4-1.3-.7 0-1.3.6-1.2 1.4 0 .7.6 1.2 1.3 1.2.6 0 1.3-.6 1.3-1.3Zm14.4-82.2c.9 0 1.5-.5 1.5-1.2s-.5-1.2-1.2-1.2c-.8 0-1.5.7-1.5 1.4 0 .6.4 1 1.2 1Zm-10.1 76.8c-.8 0-1.2.5-1.2 1.2s.5 1.1 1.2 1.2c.6 0 1.1-.6 1.1-1.2 0-.7-.5-1.2-1.2-1.2Zm-.5-57.4v.4c.3.2.6.6 1 .7.5 0 .9-.3 1-.8 0-.6-.4-1-.9-.9-.4 0-.7.4-1 .6Zm20.7-16.6v-.3c-.3-.3-.7-.7-1-.6-.3 0-.7.4-.8.7 0 .2.5.8.7.8.4 0 .7-.4 1-.6Zm-21.9 67.4c.2-.4.5-.6.5-.8a1 1 0 0 0-.7-.6s-.5.4-.5.6c0 .2.4.4.7.8Zm-.2-47c-.4-.2-.6-.5-.8-.5-.2 0-.3.3-.5.5.2.1.3.4.5.4l.8-.3Zm-1.7 52 .5-.6c-.2-.2-.4-.4-.6-.4 0 0-.4.2-.3.3 0 .2.2.4.4.6Zm-1.3-41.5c.2-.3.4-.4.4-.6 0-.1-.3-.4-.4-.3l-.4.4.4.5Zm3.8 39.5c.2-.3.4-.5.3-.6l-.4-.4-.3.3.4.7Zm.5 7.3-.5-.4c-.2 0-.4.3-.5.5l.4.3c.2 0 .3-.2.6-.4Z" class="cls-2"/><path d="M129.3 152.4c.1-6.5-2-12-6.6-16.8l2 .5 14.6 3.5c.3 0 .6.2.8.4 1.9 1.8 5 2.3 7.3 1.2.3-.1.7-.3.8-.6.8-1 2-1.4 3.2-1.9-.2 2.4-5.3 8-9 10-4 2-10.5 3.9-13.2 3.6ZM155.6 137c4.1 2.8 7.3 6 7.7 11 .1 2.1-.7 3.6-2.5 4.4-2 1-4.2 1-6.4 1-.7 0-1-.5-1.2-1-1-2.5-.8-5 0-7.4.4-1.5 1-3 1.6-4.4.2-.5.6-1 .3-1.7-.2-.4.3-1.1.5-1.9ZM92.9 133.1l.7 8.6c-1.5 0-3 .3-4.5.2-4-.2-7.7-1.6-10.8-4.3-1.2-1-2.4-2.1-3.2-3.5-.7-1.1-.9-2.6-1.2-4 2.9 1.9 5.9 3.2 9.2 3.8 3.4.6 6.7 0 9.8-.8Z" class="cls-2"/><path d="M76.7 138c.8.6 1.5 1.4 2.4 2 3.4 2.6 7.3 4.2 11.5 5 1.3.4 2.6.5 4 .7.3 0 .7.3.8.5 1 2.3 2.3 4.4 3.9 6.3-8 .2-20.7-8-22.6-14.5Z" class="cls-7"/><path d="M155.1 117.9c-1.9-1.9-4.5-2.3-6.9-3.4.2-.6-.3-.7-.7-.8l-6.7-2-7-1.9c-.3 0-.8 0-.6-.6.1-.6.5-.7 1-.6l5.2 1.3c3.5 1 7.1 2.1 10.6 3.4 1.3.5 2.5 1.3 3.7 2.2.8.5 1.3 1.3 1.4 2.4Z" class="cls-3"/><path d="m154.2 118.2-1-.2-20.5-6c-.4-.1-1-.2-.6-.9.1-.1.6-.2.9-.1l6.3 1.6 11.4 3.4c1.2.4 2.2 1.1 3.3 1.7l.3.4-.1.1ZM155.7 118.1c0-1 .4-1.7.9-2.4 1-1.5 2.5-2.7 4.1-3.6 2.9-1.8 5.8-3.4 8.7-5 .2-.2.6-.4.8-.3.3 0 .5.4.6.7 0 .1-.2.5-.4.6l-7 4a23.4 23.4 0 0 0-7.4 5.8l-.3.2Z" class="cls-3"/><path d="m156.5 118.4.5-.7c1.3-1.7 3-2.8 4.8-3.7l10-4.8c1-.4 1-.4 1.4.7l-3.8 1.8-9 4.5c-1 .4-1.6 1.1-2.4 1.7l-1.4.7v-.2Z" class="cls-3"/><path d="m166.1 128.4 4.8-8.2c.9 1.6.8 4-.4 5.7-1 1.3-2.3 2.5-4.4 2.5Z" class="cls-1"/><path d="m148.5 119.3-1.4 2.7-6.5 12.2c-.2.5-.5.8-1 .6l-6-1.3-.1-.2.6-.5c2.8-2.1 4.8-4.9 4.8-8.6 0-3-1.7-5.6-4.5-6.7l-2.7-.9c-.4 0-.8-.4-1.2.2 0 .2-.7.1-1.4.1l1.4-2.6h.6l7.8 2.2 9.7 2.8ZM163.4 118.9l-1.7.7-.2-.2c.5-.6.8-1.5 1.4-1.8 3-1.5 6-3 9.2-4.3l-1 1.7c-1.2 1.9-2.5 3.7-3.6 5.6l-5.3 9a2 2 0 0 1-.8.6l-3.7 1.6h-.8v-.8l1.5-3.2 4.6-8c0-.3.2-.5.4-1ZM145.7 132.7l-.9.5h-.1l3.4-6.6c1.3 1.5 3 2.1 5.1 2-.7 1.4-1.5 2.5-2 3.7-.7 1.4-1.7 1.9-3.2 1.6-.9-.2-1.8-.2-2.3-1.2ZM151.6 120c1.8 1.4 3.7 1.9 6 1l-1.1 2.1-1.4 2.2c-.3.3-.7.7-1.1.6-1 0-2 0-3-.4-.6-.1-1-.7-1.5-1.1v-.6c.2-.4.4-.8.7-1 .7-.8.7-2 1.4-2.8ZM142.9 138.3l1-2.3c1.1 1 2.4 1.5 3.8 1.3-.5 1.7-3.2 2.3-4.8 1Z" class="cls-6"/><path d="m121.3 132.8-.1 1.4-2.6-1.7c-.7-.4-1.5-.8-2.3-1-.8-.3-1-.8-.8-1.5l5.8 2.7Z" class="cls-2"/><path d="M100 51c-4 3.8-6.7 8.4-8.6 13.8-.7-1-1.2-2-1.7-3-1.2-2.4-2-5-2.1-7.8-.1-1.6.1-2 1.6-2.5 2.9-1 5.8-1.6 8.9-1.3.6 0 1.3.3 2 .5v.3ZM102.6 48.4l-.2-4.2c0-2 .4-4 1-6 .3-.7.7-1.1 1.5-1.2 2.7-.2 5.2.2 7.7 1.2 1.2.4 2.4 1.1 3.5 1.7l.8.6c-5.4 1.5-10 4.2-14.3 7.9ZM88.5 79.8c-2-.8-3.7-2-5.4-3.5l.8 1.3-.2.1-1.7-2.2c-.1-.2 0-.7.1-1 .8-1 1.5-2.2 2.5-3 1.3-1 2.8-1.7 4.2-2.6l.5-.1h1v1c-.4 1.5-.9 2.9-1.1 4.3l-.7 4.9v.7ZM135.6 39.1c-4.1-.6-8.3-.7-12.4 0 1.5-1.6 3-3.3 5.1-4.2a2 2 0 0 1 1.4 0 18 18 0 0 1 5.9 4.2ZM104.2 104.5c-2.1 1.2-3.9 2.5-4.9 5l-.6-2.7c-.1-.9.2-1.6 1-2.2 1-.7 2-1.4 3.3-.9l1.2.9ZM98.3 114.5c-1.6 1.8-1.5 4.4-3.5 5.9-.5-1.4-1.5-2.7-.6-4.3.7-1.1 2.6-1.9 4.1-1.6ZM93.4 94l-3-.8v.6h-.2l-.3-1a9 9 0 0 1 2.2-5.4h.2c0 .4.2.8 0 1.1-.5.9-.3 1.7 0 2.5l1 2.2.2.6-.1.2ZM94.1 125.5c-.2.8-.2 1.7-1.1 2.2-.6.4-.9 1-1.3 1.6l-1 1c-1-2.8.9-5.3 3.4-4.8ZM83.8 131.5c.2-.6.6-1.2 1.3-1.3.8 0 1.2.6 1.7 1.3h-3Z" class="cls-7"/><path d="M143.8 68.8c-.3 3.4-.6 6.1-2.8 8.1-2.6 2.4-6.2 1.8-8-1.2-2-3.4-1.3-9.4 1.3-12.3 2.7-3 7-2 8.6 1.9.5 1.2.7 2.7.8 3.5ZM117.6 51.2c1.2 0 2.1.6 2.3 1.5.3 1-.2 2-1.2 2.5a5 5 0 0 1-2 .5c-1.6 0-2.4-1.4-1.7-2.9a3 3 0 0 1 2.6-1.6ZM110.8 61.8c-1.3 0-2.1-.8-2.1-2 0-1.4 1.3-2.5 2.9-2.5 1.3 0 2.3.9 2.3 2 0 1.3-1.5 2.5-3.1 2.5ZM105.1 67c-1 0-1.7-.7-1.7-1.7 0-1.1 1-2.1 2-2.2 1 0 1.9.7 2 1.6 0 1.2-1 2.2-2.3 2.2ZM103.6 76.4c1 0 1.7.6 1.7 1.5 0 1-.9 2-2 2-.9 0-1.6-.8-1.6-1.7 0-1 .8-1.8 1.9-1.8ZM124.9 48c0 .8-.9 1.4-1.8 1.4-.6 0-1.2-.6-1.1-1.3 0-.7.7-1.3 1.5-1.3s1.4.6 1.4 1.2ZM101.9 131.8c0 .7-.6 1.3-1.3 1.3-.7 0-1.3-.5-1.3-1.2 0-.8.5-1.4 1.2-1.4.8 0 1.4.6 1.4 1.3ZM116.3 49.6c-.8 0-1.2-.3-1.2-1s.7-1.4 1.6-1.4c.6 0 1.1.6 1.1 1.2 0 .7-.6 1.2-1.4 1.2ZM106.2 126.5c.7 0 1.2.4 1.2 1.1 0 .7-.6 1.2-1.2 1.2-.7 0-1.2-.5-1.2-1.2s.5-1.2 1.2-1.1ZM105.8 69l1-.6c.5 0 1 .3.9 1-.1.4-.5.8-1 .7-.3 0-.6-.5-1-.7V69ZM126.4 52.5c-.3.2-.7.5-1 .5-.3 0-.8-.5-.7-.7 0-.3.5-.8.8-.8.2 0 .6.4 1 .6l-.1.4ZM104.5 119.8c-.3-.3-.6-.5-.6-.8 0-.2.3-.6.5-.5.2 0 .5.3.6.5l-.5.9ZM104.3 73l-.8.3c-.2 0-.3-.3-.5-.5l.5-.4c.2 0 .4.2.8.5ZM102.6 124.8l-.4-.7.4-.3c.2 0 .3.3.5.4l-.5.6ZM101.3 83.3l-.4-.5c0-.2.3-.4.4-.4l.4.3c0 .2-.2.3-.4.6ZM105.1 122.8l-.3-.6.3-.4c0 .2.3.3.3.5 0 0 0 .2-.3.5ZM105.6 130c-.2.3-.4.5-.6.5l-.3-.3c0-.2.2-.4.4-.4l.5.3Z"/></g></svg>